<svg width="453" height="48" viewBox="0 0 453 48" fill="none" xmlns="http://www.w3.org/2000/svg">
<path d="M15.0774 34.9577C12.0699 34.9577 9.49205 34.2998 7.34384 32.984C5.19563 31.6414 3.5442 29.7752 2.38954 27.3853C1.26173 24.9685 0.697826 22.1356 0.697826 18.8864C0.697826 16.0401 1.18117 13.4756 2.14787 11.1932C3.11456 8.88385 4.45719 6.91018 6.17575 5.27218C7.92117 3.63417 9.96197 2.38552 12.2981 1.52624C14.6343 0.640105 17.1719 0.197037 19.9109 0.197037C21.8979 0.197037 23.7239 0.411857 25.3888 0.841498C27.0536 1.27114 28.5842 1.99616 29.9806 3.01656C31.1352 3.84899 32.0751 4.84253 32.8001 5.9972C33.552 7.15186 34.1024 8.61532 34.4515 10.3876C34.8275 12.133 35.0154 14.3483 35.0154 17.0336V34.4744H29.0139V18.8462C29.0139 17.5572 28.9602 16.2012 28.8528 14.778C28.7722 13.328 28.544 11.945 28.168 10.6293C27.8189 9.31349 27.255 8.21253 26.4763 7.3264C25.6439 6.33285 24.6638 5.63469 23.536 5.2319C22.435 4.82911 21.1326 4.62771 19.6289 4.62771C17.9909 4.62771 16.3797 4.90966 14.7954 5.47357C13.238 6.03747 11.8282 6.91018 10.5662 8.0917C9.30408 9.24636 8.29711 10.7501 7.54524 12.6029C6.79336 14.4289 6.41743 16.6174 6.41743 19.1684C6.41743 21.4777 6.6591 23.438 7.14245 25.0491C7.65265 26.6334 8.31053 27.8955 9.11611 28.8353C9.03555 28.4862 8.955 28.1372 8.87444 27.7881C8.82073 27.4121 8.79388 27.0228 8.79388 26.62C8.79388 24.5523 9.4652 22.8338 10.8078 21.4643C12.1505 20.0948 14.245 19.4101 17.0913 19.4101C18.971 19.4101 20.515 19.7457 21.7234 20.417C22.9318 21.0884 23.8313 21.9879 24.4221 23.1157C25.0128 24.2435 25.3082 25.4787 25.3082 26.8214C25.3082 29.5335 24.3952 31.5743 22.5693 32.9438C20.7433 34.2864 18.246 34.9577 15.0774 34.9577ZM13.7885 26.9019C13.7885 27.6538 13.8824 28.3654 14.0704 29.0367C14.2584 29.6812 14.5135 30.2585 14.8357 30.7687C15.1311 30.7956 15.4399 30.809 15.7621 30.809C17.2659 30.809 18.2863 30.4196 18.8233 29.6409C19.3872 28.8353 19.6692 27.9358 19.6692 26.9422C19.6692 26.0829 19.4409 25.3042 18.9844 24.606C18.5279 23.9079 17.7895 23.5588 16.7691 23.5588C15.9635 23.5588 15.2654 23.8273 14.6746 24.3644C14.0838 24.9014 13.7885 25.7473 13.7885 26.9019ZM46.8706 34.9577C43.8363 34.9577 41.3793 34.3535 39.4996 33.1452C37.6199 31.9099 36.6801 30.1377 36.6801 27.8283C36.6801 26.5663 37.0023 25.4385 37.6468 24.4449C38.3181 23.4245 39.3653 22.5921 40.7885 21.9476V11.8376H65.7212V16.1475H58.1084V20.5379C60.4715 20.6453 62.566 21.0481 64.392 21.7462C66.2179 22.4444 67.6411 23.5185 68.6615 24.9685C69.7088 26.3917 70.2324 28.258 70.2324 30.5673C70.2324 32.3933 69.843 33.9373 69.0643 35.1994C68.3124 36.4883 67.2249 37.6027 65.8017 38.5425C64.4859 39.4555 62.7405 40.1403 60.5655 40.5968C58.3904 41.0532 55.6649 41.2815 52.3888 41.2815H49.2471C47.6091 41.2815 46.441 41.3486 45.7428 41.4829C45.0715 41.644 44.521 41.8723 44.0914 42.1676C43.6618 42.4899 43.3261 42.8927 43.0844 43.376C42.8428 43.8862 42.7219 44.5709 42.7219 45.4302C42.7219 45.9941 42.7622 46.558 42.8428 47.1219L36.962 47.4039C36.8815 46.84 36.8143 46.2761 36.7606 45.7122C36.7338 45.1751 36.7204 44.5844 36.7204 43.9399C36.7204 42.7315 36.962 41.6709 37.4454 40.7579C37.9287 39.8717 38.5732 39.1467 39.3788 38.5828C39.9158 38.2069 40.52 37.8981 41.1913 37.6564C41.8626 37.4147 42.6951 37.2402 43.6886 37.1328C44.6822 37.0254 45.9174 36.9717 47.3943 36.9717H51.0194C53.3555 36.9717 55.2755 36.8777 56.7792 36.6897C58.283 36.5286 59.4914 36.2601 60.4043 35.8841C61.3442 35.5082 62.1095 35.0114 62.7002 34.3938C63.7743 33.3197 64.3114 31.8831 64.3114 30.084C64.3114 28.795 64.016 27.7746 63.4253 27.0228C62.8345 26.2709 62.0692 25.7204 61.1294 25.3713C60.1895 24.9954 59.1826 24.7537 58.1084 24.6463V24.8074C58.1084 26.6871 57.9205 28.1774 57.5445 29.2784C57.1955 30.3525 56.6853 31.2655 56.0139 32.0174C55.0473 33.0915 53.7852 33.8568 52.2277 34.3132C50.6703 34.7429 48.8846 34.9577 46.8706 34.9577ZM46.1859 16.1475V20.6587C47.26 20.5513 48.4281 20.4976 49.6902 20.4976H52.268V16.1475H46.1859ZM42.6011 27.7075C42.6011 28.7011 43.0173 29.4395 43.8497 29.9229C44.709 30.4062 45.8502 30.6479 47.2734 30.6479C48.3207 30.6479 49.2068 30.4868 49.9318 30.1645C50.6837 29.8423 51.261 29.265 51.6638 28.4325C52.0666 27.5732 52.268 26.3917 52.268 24.888V24.5658H48.9249C47.985 24.5658 47.0855 24.6195 46.2262 24.7269C45.3937 24.8074 44.6822 24.9954 44.0914 25.2908C43.0979 25.801 42.6011 26.6066 42.6011 27.7075ZM71.7271 34.4744V11.8376H95.7736V16.1475H90.0137V34.4744H84.0122V16.1475H77.7287V34.4744H71.7271ZM102.434 36.2064C102.971 36.2064 103.522 36.2198 104.086 36.2466C104.676 36.3003 105.213 36.3809 105.697 36.4883L105.415 40.4759C104.905 40.3954 104.18 40.3551 103.24 40.3551C102.568 40.3551 101.991 40.4491 101.508 40.637C101.051 40.8519 100.823 41.2009 100.823 41.6843C100.823 42.3287 101.185 42.745 101.91 42.9329C102.635 43.1209 103.414 43.2149 104.247 43.2149H105.334C107.026 43.2149 108.409 42.9329 109.483 42.369C110.557 41.8051 111.43 40.9458 112.101 39.7912C111.457 39.2273 110.933 38.5157 110.53 37.6564C110.154 36.7971 109.939 35.7364 109.886 34.4744H96.4325V11.8376H102.434V30.1645H109.845V20.1754C109.845 18.5105 110.02 17.1544 110.369 16.1072C110.745 15.0599 111.282 14.1872 111.98 13.4891C113.457 12.0659 115.578 11.3543 118.344 11.3543C120.842 11.3543 122.869 11.8913 124.426 12.9654C125.984 14.0127 127.125 15.4627 127.85 17.3156C128.602 19.1684 128.978 21.2629 128.978 23.5991C128.978 25.6399 128.736 27.345 128.253 28.7145C127.796 30.084 127.058 31.1983 126.038 32.0576C125.313 32.6752 124.493 33.1586 123.581 33.5077C122.668 33.8568 121.58 34.1119 120.318 34.273C119.056 34.4072 117.512 34.4744 115.686 34.4744C115.686 35.092 115.793 35.629 116.008 36.0855C116.25 36.542 116.626 36.8911 117.136 37.1328C117.512 37.3207 117.941 37.4416 118.425 37.4953C118.908 37.5758 119.566 37.6161 120.398 37.6161H124.668V41.8857H117.176C116.183 43.7922 114.759 45.1885 112.907 46.0747C111.054 46.9608 108.691 47.4039 105.818 47.4039H104.327C102.877 47.4039 101.521 47.2428 100.259 46.9205C99.0238 46.5983 98.0437 46.1821 97.3187 45.6719C96.7548 45.296 96.2446 44.7723 95.7881 44.101C95.3584 43.4297 95.1436 42.5973 95.1436 41.6037C95.1436 39.9389 95.7747 38.6231 97.0367 37.6564C98.2988 36.6897 100.098 36.2064 102.434 36.2064ZM118.747 15.6641C118.398 15.6641 118.049 15.7178 117.7 15.8252C117.378 15.9327 117.082 16.1206 116.814 16.3891C116.465 16.7382 116.209 17.2216 116.048 17.8392C115.914 18.4299 115.847 19.4101 115.847 20.7795V30.1645H117.378C118.801 30.1645 119.915 29.9631 120.721 29.5603C121.553 29.1307 122.13 28.4325 122.453 27.4658C122.802 26.4991 122.976 25.2102 122.976 23.5991C122.976 22.1222 122.842 20.793 122.574 19.6115C122.305 18.4031 121.862 17.4498 121.244 16.7517C120.627 16.0266 119.794 15.6641 118.747 15.6641ZM124.408 0.197037C126.529 0.197037 128.342 0.505841 129.846 1.12345C131.376 1.71421 132.598 2.47951 133.511 3.41935C134.129 4.06381 134.693 4.86939 135.203 5.83608C135.713 6.77592 136.116 8.02456 136.411 9.58202C136.733 11.1126 136.895 13.1131 136.895 15.5836V34.4744H130.893V17.1544C130.893 15.0868 130.826 13.3548 130.692 11.9585C130.557 10.5353 130.316 9.35377 129.967 8.41393C129.618 7.44724 129.121 6.64166 128.476 5.9972C127.966 5.487 127.389 5.09763 126.744 4.82911C126.1 4.56058 125.361 4.42632 124.529 4.42632C123.374 4.42632 122.461 4.64114 121.79 5.07078C121.092 5.50042 120.595 6.0509 120.3 6.72222C120.004 7.36668 119.857 8.05142 119.857 8.77644C119.857 9.52831 119.977 10.3339 120.219 11.1932C120.434 12.0256 120.77 12.8715 121.226 13.7307H115.265C114.916 13.0863 114.647 12.321 114.459 11.4348C114.244 10.5487 114.137 9.68943 114.137 8.857C114.137 7.3264 114.432 6.02405 115.023 4.94994C115.614 3.84899 116.406 2.94943 117.4 2.25126C118.393 1.55309 119.508 1.04289 120.743 0.720661C121.951 0.371578 123.173 0.197037 124.408 0.197037ZM147.956 34.9577C145.19 34.9577 142.948 34.1119 141.229 32.4201C139.538 30.7284 138.692 28.1774 138.692 24.7672C138.692 22.5921 139.068 20.6721 139.82 19.0073C140.598 17.3424 141.659 15.9461 143.002 14.8183C144.371 13.6636 145.928 12.8043 147.674 12.2404C149.446 11.6497 151.312 11.3543 153.273 11.3543C155.206 11.3543 156.884 11.5691 158.308 11.9987C159.758 12.4015 161.02 13.0729 162.094 14.0127C162.792 14.6034 163.383 15.3285 163.866 16.1878C164.349 17.0202 164.739 18.1211 165.034 19.4906C165.329 20.8601 165.531 22.6324 165.638 24.8074C165.692 25.9084 165.813 26.9288 166.001 27.8686C166.216 28.7816 166.659 29.4798 167.33 29.9631C167.948 30.4196 168.713 30.6479 169.626 30.6479C170.888 30.6479 171.895 30.2048 172.647 29.3187C173.399 28.4325 173.775 26.7811 173.775 24.3644C173.775 22.4847 173.385 20.5244 172.607 18.4836C171.828 16.4429 170.754 14.5632 169.384 12.8446L174.339 9.90425C177.964 14.2812 179.776 19.0207 179.776 24.1227C179.776 26.2709 179.414 28.164 178.689 29.802C177.964 31.4132 176.822 32.6752 175.265 33.5882C173.734 34.5012 171.734 34.9577 169.263 34.9577C168.028 34.9577 166.873 34.81 165.799 34.5146C164.725 34.2193 163.772 33.7359 162.94 33.0646C162 32.3127 161.234 31.2923 160.644 30.0034C160.08 28.7145 159.731 27.0899 159.596 25.1297C159.489 23.6259 159.328 22.2699 159.113 21.0615C158.925 19.8531 158.536 18.8327 157.945 18.0003C157.435 17.2753 156.763 16.7248 155.931 16.3489C155.099 15.9461 154.038 15.7447 152.749 15.7447C150.708 15.7447 148.99 16.2683 147.593 17.3156C146.197 18.336 145.203 19.7054 144.613 21.424C145.23 21.1286 145.902 20.9004 146.627 20.7393C147.352 20.5782 148.13 20.4976 148.963 20.4976C151.111 20.4976 152.856 21.1018 154.199 22.3101C155.542 23.5185 156.213 25.2371 156.213 27.4658C156.213 29.7752 155.515 31.6011 154.119 32.9438C152.722 34.2864 150.668 34.9577 147.956 34.9577ZM147.472 24.5658C146.828 24.5658 146.21 24.6866 145.62 24.9283C145.056 25.1699 144.519 25.4787 144.009 25.8547C144.089 27.6538 144.452 28.9293 145.096 29.6812C145.741 30.4331 146.613 30.809 147.714 30.809C148.627 30.809 149.325 30.5539 149.809 30.0437C150.319 29.5066 150.574 28.7413 150.574 27.7478C150.574 26.7542 150.292 25.9755 149.728 25.4116C149.191 24.8477 148.439 24.5658 147.472 24.5658ZM159.435 7.80974C158.469 7.80974 157.676 7.50094 157.059 6.88333C156.441 6.23887 156.132 5.43329 156.132 4.4666C156.132 3.4999 156.441 2.70775 157.059 2.09014C157.676 1.44568 158.469 1.12345 159.435 1.12345C160.375 1.12345 161.154 1.44568 161.772 2.09014C162.389 2.70775 162.698 3.4999 162.698 4.4666C162.698 5.43329 162.389 6.23887 161.772 6.88333C161.154 7.50094 160.375 7.80974 159.435 7.80974ZM181.838 34.4744V11.8376H205.643V16.1475H199.843V20.9407C200.46 20.6184 201.132 20.3633 201.857 20.1754C202.582 19.9874 203.401 19.8934 204.314 19.8934C206.838 19.8934 208.892 20.6721 210.476 22.2296C212.061 23.787 212.853 26.2843 212.853 29.7215C212.853 32.4336 212.342 34.8503 211.322 36.9717H218.049V11.8376H224.05V41.2815H208.905C207.079 43.1612 204.77 44.6515 201.977 45.7525C199.185 46.8534 195.989 47.4039 192.391 47.4039H191.988C188.309 47.4039 185.382 46.8534 183.207 45.7525C181.032 44.6515 179.945 43.0001 179.945 40.7981C179.945 39.4824 180.442 38.4888 181.435 37.8175C181.892 37.5221 182.429 37.3073 183.046 37.1731C183.691 37.0388 184.778 36.9717 186.309 36.9717H205.522C206.005 36.005 206.368 34.9577 206.609 33.8299C206.878 32.6752 207.012 31.4669 207.012 30.2048C207.012 27.9492 206.65 26.3917 205.925 25.5325C205.2 24.6463 204.206 24.2032 202.944 24.2032C202.326 24.2032 201.763 24.2838 201.252 24.4449C200.769 24.606 200.299 24.8343 199.843 25.1297V34.4744H193.841V16.1475H187.839V34.4744H181.838ZM191.424 43.4163H192.028C194.472 43.4163 196.553 43.2015 198.272 42.7718C199.99 42.3422 201.467 41.7111 202.702 40.8787H186.752C186.295 40.8787 185.946 40.919 185.705 40.9995C185.49 41.0801 185.382 41.2681 185.382 41.5634C185.382 42.1005 185.906 42.5436 186.953 42.8927C188.027 43.2417 189.518 43.4163 191.424 43.4163ZM227.233 34.4744V11.8376H233.235V30.1645H253.294V34.4744H227.233ZM240.203 7.80974C239.237 7.80974 238.444 7.50094 237.827 6.88333C237.209 6.23887 236.9 5.43329 236.9 4.4666C236.9 3.4999 237.209 2.70775 237.827 2.09014C238.444 1.44568 239.237 1.12345 240.203 1.12345C241.143 1.12345 241.922 1.44568 242.539 2.09014C243.157 2.70775 243.466 3.4999 243.466 4.4666C243.466 5.43329 243.157 6.23887 242.539 6.88333C241.922 7.50094 241.143 7.80974 240.203 7.80974ZM253.945 34.4744V11.8376H259.947V30.1645H275.011V11.8376H281.012V34.4744H253.945ZM302.434 40.1537C298.191 40.1537 294.928 39.3884 292.646 37.8578C290.39 36.3272 289.262 34.3535 289.262 31.9368C289.262 31.1581 289.41 30.4196 289.705 29.7215C290.028 29.0233 290.551 28.4191 291.276 27.9089C291.84 27.5061 292.592 27.2107 293.532 27.0228C294.472 26.8348 295.761 26.7408 297.399 26.7408H317.981C318.035 26.3917 318.062 26.0427 318.062 25.6936C318.089 25.3176 318.102 24.9685 318.102 24.6463C318.102 23.1157 317.874 21.706 317.417 20.417C316.988 19.1013 316.263 18.0272 315.242 17.1947C315.323 17.6512 315.363 18.1211 315.363 18.6045C315.363 19.8397 315.108 20.9675 314.598 21.9879C314.114 23.0083 313.309 23.8139 312.181 24.4046C311.053 24.9954 309.563 25.2908 307.71 25.2908C306.341 25.2908 305.065 25.0491 303.884 24.5658C302.729 24.0824 301.789 23.3574 301.064 22.3907C300.366 21.3972 300.017 20.1619 300.017 18.685C300.017 16.9665 300.446 15.5701 301.306 14.496C302.192 13.4219 303.373 12.6298 304.85 12.1196C306.327 11.6094 307.992 11.3543 309.845 11.3543C312.235 11.3543 314.302 11.7168 316.048 12.4418C317.793 13.1668 319.243 14.1604 320.398 15.4225C321.579 16.6577 322.452 18.0674 323.016 19.6517C323.58 21.2092 323.862 22.8338 323.862 24.5255C323.862 24.9014 323.848 25.2774 323.822 25.6533C323.795 26.0292 323.754 26.3917 323.701 26.7408H328.172V11.8376H334.173V40.6773H328.172V31.0104H322.774C321.271 33.8836 318.814 36.1258 315.403 37.737C311.993 39.3481 307.911 40.1537 303.159 40.1537H302.434ZM305.454 18.4434C305.454 19.2758 305.683 19.9337 306.139 20.417C306.596 20.9004 307.24 21.1421 308.073 21.1421C308.771 21.1421 309.375 20.9272 309.885 20.4976C310.395 20.0411 310.65 19.2221 310.65 18.0406C310.65 17.5572 310.597 17.1007 310.489 16.6711C310.382 16.2415 310.234 15.8252 310.046 15.4225C309.939 15.4225 309.831 15.4225 309.724 15.4225C308.596 15.4225 307.603 15.6238 306.743 16.0266C305.884 16.4294 305.454 17.235 305.454 18.4434ZM303.602 35.8438C306.878 35.8438 309.549 35.3874 311.617 34.4744C313.685 33.5882 315.269 32.4336 316.37 31.0104H297.842C297.17 31.0104 296.66 31.0507 296.311 31.1312C295.962 31.1849 295.694 31.2923 295.506 31.4534C295.21 31.7488 295.063 32.0979 295.063 32.5007C295.063 33.4942 295.707 34.2998 296.996 34.9174C298.285 35.535 300.326 35.8438 303.118 35.8438H303.602ZM345.279 34.9577C342.487 34.9577 340.231 34.1119 338.512 32.4201C336.821 30.7284 335.975 28.1909 335.975 24.8074C335.975 22.1222 336.646 19.7726 337.989 17.7586C339.331 15.7447 341.251 14.1738 343.749 13.046C346.273 11.9182 349.267 11.3543 352.731 11.3543C354.933 11.3543 356.866 11.5423 358.531 11.9182C360.223 12.2941 361.888 12.9386 363.526 13.8516C364.814 12.9923 366.144 12.3613 367.513 11.9585C368.91 11.5557 370.306 11.3543 371.702 11.3543C374.629 11.3543 376.979 11.8913 378.751 12.9654C380.55 14.0395 381.852 15.4762 382.658 17.2753C383.49 19.0476 383.907 20.9944 383.907 23.1157C383.907 24.7537 383.719 26.3112 383.343 27.7881C382.994 29.2381 382.551 30.5807 382.014 31.816C381.477 33.0243 380.913 34.0716 380.322 34.9577L375.368 32.541C376.066 31.44 376.656 30.1645 377.14 28.7145C377.65 27.2376 377.905 25.4922 377.905 23.4782C377.905 21.0078 377.301 19.1013 376.093 17.7586C374.884 16.416 373.219 15.7447 371.098 15.7447C370.4 15.7447 369.742 15.8118 369.124 15.9461C368.507 16.0535 367.903 16.2415 367.312 16.51C368.762 17.8526 369.93 19.3832 370.816 21.1018C371.702 22.8203 372.145 24.7672 372.145 26.9422C372.145 29.4127 371.447 31.3729 370.051 32.8229C368.654 34.2461 366.694 34.9577 364.17 34.9577C362.237 34.9577 360.666 34.5952 359.457 33.8702C358.276 33.1452 357.403 32.1785 356.839 30.9701C356.275 29.7349 355.993 28.3923 355.993 26.9422C355.993 25.0625 356.329 23.3037 357 21.6657C357.699 20.0008 358.625 18.4702 359.78 17.0739C358.732 16.6174 357.631 16.2817 356.477 16.0669C355.322 15.8521 354.1 15.7447 352.811 15.7447C349.911 15.7447 347.562 16.2952 345.763 17.3961C343.963 18.4702 342.715 19.7994 342.017 21.3837C342.634 21.1152 343.292 20.9004 343.99 20.7393C344.688 20.5782 345.44 20.4976 346.246 20.4976C348.421 20.4976 350.166 21.1018 351.482 22.3101C352.825 23.5185 353.496 25.2371 353.496 27.4658C353.496 29.7752 352.798 31.6011 351.402 32.9438C350.032 34.2864 347.991 34.9577 345.279 34.9577ZM361.592 26.6603C361.592 28.1372 361.82 29.2113 362.277 29.8826C362.733 30.527 363.311 30.8493 364.009 30.8493C364.976 30.8493 365.62 30.4196 365.942 29.5603C366.291 28.6742 366.466 27.6672 366.466 26.5394C366.466 25.2505 366.224 24.0019 365.741 22.7935C365.258 21.5851 364.546 20.511 363.606 19.5712C362.962 20.4573 362.465 21.4911 362.116 22.6727C361.767 23.8542 361.592 25.1834 361.592 26.6603ZM344.756 24.5658C344.084 24.5658 343.467 24.7 342.903 24.9685C342.339 25.2102 341.802 25.519 341.292 25.895C341.372 27.6672 341.721 28.9293 342.339 29.6812C342.983 30.4331 343.869 30.809 344.997 30.809C345.91 30.809 346.608 30.5539 347.092 30.0437C347.602 29.5066 347.857 28.7413 347.857 27.7478C347.857 26.7542 347.575 25.9755 347.011 25.4116C346.474 24.8477 345.722 24.5658 344.756 24.5658ZM385.965 34.4744V11.8376H391.967V30.1645H412.026V34.4744H385.965ZM420.572 34.9577C417.806 34.9577 415.563 34.1119 413.845 32.4201C412.153 30.7284 411.307 28.1774 411.307 24.7672C411.307 21.8671 411.938 19.4235 413.2 17.4364C414.463 15.4493 416.181 13.9456 418.356 12.9252C420.531 11.8779 422.975 11.3543 425.687 11.3543C428.157 11.3543 430.252 11.6765 431.97 12.321C433.689 12.9386 435.085 13.7979 436.159 14.8988C437.234 15.9729 438.012 17.2216 438.496 18.6448C438.979 20.0411 439.221 21.5046 439.221 23.0352C439.221 24.3509 439.086 25.613 438.818 26.8214C438.549 28.0029 438.2 29.1173 437.771 30.1645H446.269V11.8376H452.271V45.8733H446.269V34.4744H431.608L431.407 31.2118C431.917 30.2988 432.346 29.2113 432.695 27.9492C433.045 26.6871 433.219 25.2774 433.219 23.7199C433.219 21.1689 432.534 19.2087 431.165 17.8392C429.822 16.4429 427.849 15.7447 425.244 15.7447C423.203 15.7447 421.498 16.2817 420.128 17.3558C418.786 18.4031 417.833 19.7591 417.269 21.424C417.886 21.1286 418.544 20.9004 419.242 20.7393C419.967 20.5782 420.746 20.4976 421.578 20.4976C423.727 20.4976 425.472 21.1018 426.815 22.3101C428.157 23.5185 428.829 25.2371 428.829 27.4658C428.829 29.7752 428.131 31.6011 426.734 32.9438C425.338 34.2864 423.284 34.9577 420.572 34.9577ZM420.088 24.5658C419.444 24.5658 418.826 24.6866 418.235 24.9283C417.671 25.1699 417.134 25.4787 416.624 25.8547C416.705 27.6538 417.067 28.9293 417.712 29.6812C418.356 30.4331 419.229 30.809 420.33 30.809C421.243 30.809 421.941 30.5539 422.424 30.0437C422.935 29.5066 423.19 28.7413 423.19 27.7478C423.19 26.7274 422.908 25.9487 422.344 25.4116C421.807 24.8477 421.055 24.5658 420.088 24.5658Z" fill="#03B051"/>
</svg>
