<svg width="221" height="49" viewBox="0 0 221 49" fill="none" xmlns="http://www.w3.org/2000/svg">
<path d="M17.3204 1.80176C18.1903 2.01923 29.2812 10.7724 34.718 15.1218V39.3153M17.3204 1.80176L1.28198 15.1218V39.3153M17.3204 1.80176V32.5194M34.718 39.3153L18.1359 47.1986L1.28198 39.3153M34.718 39.3153L17.3204 32.5194M1.28198 39.3153L17.3204 32.5194" stroke="#03B051" stroke-width="2.14896"/>
<path d="M34.446 39.315C34.446 33.5474 31.9408 26.3849 28.933 22.3066C25.9252 18.2282 21.8458 15.937 17.5921 15.937C13.3385 15.937 9.25903 18.2282 6.25125 22.3066C3.24347 26.3849 1.55371 33.5474 1.55371 39.315L17.5921 32.5191L34.446 39.315Z" stroke="#03B051" stroke-width="2.14896" stroke-linejoin="bevel"/>
<path d="M49.802 13.852H51.818C51.854 13.852 51.884 13.858 51.908 13.87C51.944 13.882 51.974 13.9 51.998 13.924C52.022 13.948 52.04 13.99 52.052 14.05C52.22 14.782 52.382 15.478 52.538 16.138C52.694 16.786 52.838 17.416 52.97 18.028C53.114 18.64 53.24 19.252 53.348 19.864C53.468 20.464 53.564 21.082 53.636 21.718H54.032C54.092 21.034 54.164 20.362 54.248 19.702C54.332 19.03 54.428 18.364 54.536 17.704C54.644 17.044 54.752 16.39 54.86 15.742C54.98 15.094 55.094 14.464 55.202 13.852C55.418 13.852 55.64 13.852 55.868 13.852C56.108 13.852 56.348 13.852 56.588 13.852C56.828 13.852 57.056 13.852 57.272 13.852C57.32 13.852 57.356 13.858 57.38 13.87C57.416 13.87 57.44 13.888 57.452 13.924C57.464 13.96 57.458 14.014 57.434 14.086C57.278 14.818 57.11 15.574 56.93 16.354C56.762 17.122 56.588 17.908 56.408 18.712C56.228 19.516 56.048 20.32 55.868 21.124C55.688 21.928 55.508 22.72 55.328 23.5C55.136 23.5 54.932 23.5 54.716 23.5C54.5 23.5 54.278 23.5 54.05 23.5C53.822 23.5 53.594 23.5 53.366 23.5C53.15 23.5 52.946 23.5 52.754 23.5C52.682 23.5 52.622 23.47 52.574 23.41C52.526 23.35 52.478 23.236 52.43 23.068C52.31 22.552 52.196 22.108 52.088 21.736C51.992 21.352 51.902 20.998 51.818 20.674C51.734 20.338 51.656 19.984 51.584 19.612C51.512 19.24 51.434 18.814 51.35 18.334C51.278 17.842 51.2 17.248 51.116 16.552H50.774C50.678 17.128 50.594 17.632 50.522 18.064C50.462 18.484 50.402 18.862 50.342 19.198C50.282 19.522 50.216 19.834 50.144 20.134C50.084 20.434 50.012 20.746 49.928 21.07C49.844 21.382 49.748 21.736 49.64 22.132C49.544 22.516 49.43 22.972 49.298 23.5C49.034 23.5 48.746 23.5 48.434 23.5C48.134 23.5 47.834 23.5 47.534 23.5C47.246 23.5 46.982 23.5 46.742 23.5C46.67 23.5 46.61 23.47 46.562 23.41C46.514 23.35 46.466 23.224 46.418 23.032C46.31 22.528 46.19 21.988 46.058 21.412C45.926 20.824 45.788 20.218 45.644 19.594C45.512 18.97 45.368 18.334 45.212 17.686C45.068 17.038 44.924 16.39 44.78 15.742C44.636 15.094 44.498 14.464 44.366 13.852C44.57 13.852 44.786 13.852 45.014 13.852C45.254 13.852 45.488 13.852 45.716 13.852C45.956 13.852 46.184 13.852 46.4 13.852C46.448 13.852 46.484 13.858 46.508 13.87C46.544 13.882 46.568 13.906 46.58 13.942C46.604 13.966 46.622 14.014 46.634 14.086C46.742 14.674 46.856 15.286 46.976 15.922C47.096 16.546 47.21 17.182 47.318 17.83C47.438 18.478 47.54 19.126 47.624 19.774C47.72 20.422 47.792 21.07 47.84 21.718H48.236C48.308 21.082 48.398 20.44 48.506 19.792C48.626 19.144 48.752 18.496 48.884 17.848C49.028 17.188 49.178 16.528 49.334 15.868C49.49 15.196 49.646 14.524 49.802 13.852ZM60.4725 23.302C60.4725 22.93 60.4725 22.498 60.4725 22.006C60.4725 21.502 60.4725 20.968 60.4725 20.404C60.4725 19.84 60.4725 19.276 60.4725 18.712C60.4725 18.148 60.4725 17.614 60.4725 17.11C60.4725 16.606 60.4725 16.174 60.4725 15.814H60.3105C60.2265 15.814 60.1365 15.814 60.0405 15.814C59.9445 15.814 59.8425 15.814 59.7345 15.814C59.6265 15.814 59.5185 15.814 59.4105 15.814C59.3025 15.814 59.2005 15.814 59.1045 15.814C59.0445 15.814 58.9965 15.796 58.9605 15.76C58.9245 15.712 58.9065 15.664 58.9065 15.616C58.9065 15.328 58.9065 15.034 58.9065 14.734C58.9065 14.434 58.9065 14.14 58.9065 13.852C59.0985 13.852 59.3205 13.852 59.5725 13.852C59.8245 13.852 60.0825 13.852 60.3465 13.852C60.6225 13.852 60.8865 13.852 61.1385 13.852C61.4025 13.852 61.6485 13.852 61.8765 13.852C62.1045 13.852 62.2965 13.852 62.4525 13.852C62.5005 13.852 62.5365 13.864 62.5605 13.888C62.5845 13.9 62.6025 13.918 62.6145 13.942C62.6385 13.966 62.6505 14.002 62.6505 14.05C62.6505 14.626 62.6505 15.244 62.6505 15.904C62.6505 16.564 62.6505 17.236 62.6505 17.92C62.6505 18.592 62.6505 19.258 62.6505 19.918C62.6505 20.566 62.6505 21.19 62.6505 21.79C62.6505 21.97 62.6505 22.156 62.6505 22.348C62.6505 22.54 62.6505 22.732 62.6505 22.924C62.6505 23.116 62.6505 23.308 62.6505 23.5C62.3025 23.5 61.9725 23.5 61.6605 23.5C61.3605 23.5 61.0305 23.5 60.6705 23.5C60.6105 23.5 60.5625 23.482 60.5265 23.446C60.4905 23.41 60.4725 23.362 60.4725 23.302ZM60.0765 9.334C60.2925 9.334 60.5085 9.334 60.7245 9.334C60.9405 9.334 61.1625 9.334 61.3905 9.334C61.6305 9.334 61.8585 9.334 62.0745 9.334C62.2905 9.334 62.5065 9.334 62.7225 9.334C62.7825 9.334 62.8305 9.352 62.8665 9.388C62.9025 9.424 62.9205 9.472 62.9205 9.532V11.656C62.7045 11.656 62.4885 11.656 62.2725 11.656C62.0565 11.656 61.8285 11.656 61.5885 11.656C61.3605 11.656 61.1385 11.656 60.9225 11.656C60.7065 11.656 60.4905 11.656 60.2745 11.656C60.2145 11.656 60.1665 11.638 60.1305 11.602C60.0945 11.566 60.0765 11.518 60.0765 11.458V9.334ZM68.0435 23.5C67.8155 23.5 67.5935 23.5 67.3775 23.5C67.1735 23.5 66.9635 23.5 66.7475 23.5C66.5315 23.5 66.3095 23.5 66.0815 23.5C66.0455 23.5 66.0095 23.494 65.9735 23.482C65.9495 23.458 65.9255 23.434 65.9015 23.41C65.8895 23.386 65.8835 23.35 65.8835 23.302C65.8835 22.342 65.8835 21.382 65.8835 20.422C65.8835 19.462 65.8835 18.502 65.8835 17.542C65.8835 16.582 65.8835 15.622 65.8835 14.662C65.8835 13.702 65.8835 12.742 65.8835 11.782C65.8835 11.422 65.8835 11.092 65.8835 10.792C65.8835 10.48 65.8835 10.216 65.8835 10C66.1475 10 66.3875 10 66.6035 10C66.8195 10 67.0295 10 67.2335 10C67.4375 10 67.6415 10 67.8455 10C67.8935 10 67.9295 10.012 67.9535 10.036C67.9775 10.048 67.9955 10.066 68.0075 10.09C68.0315 10.114 68.0435 10.15 68.0435 10.198C68.0435 11.302 68.0435 12.412 68.0435 13.528C68.0435 14.632 68.0435 15.742 68.0435 16.858C68.0435 17.962 68.0435 19.072 68.0435 20.188C68.0435 21.292 68.0435 22.396 68.0435 23.5ZM72.3995 23.5C72.2555 23.5 72.1475 23.482 72.0755 23.446C72.0155 23.41 71.9555 23.35 71.8955 23.266C71.8475 23.206 71.7695 23.11 71.6615 22.978C71.5655 22.834 71.4515 22.672 71.3195 22.492C71.1875 22.312 71.0435 22.12 70.8875 21.916C70.7435 21.712 70.5995 21.52 70.4555 21.34C70.2755 21.1 70.1255 20.878 70.0055 20.674C69.8975 20.47 69.8075 20.266 69.7355 20.062C69.6635 19.846 69.5975 19.606 69.5375 19.342H68.8355L70.1495 17.614C70.6775 18.274 71.1935 18.934 71.6975 19.594C72.2015 20.242 72.7055 20.89 73.2095 21.538C73.7255 22.186 74.2415 22.84 74.7575 23.5C74.5175 23.5 74.2835 23.5 74.0555 23.5C73.8275 23.5 73.5815 23.5 73.3175 23.5C73.0655 23.5 72.7595 23.5 72.3995 23.5ZM67.7195 18.154H68.3675C68.4635 17.902 68.5535 17.68 68.6375 17.488C68.7335 17.284 68.8355 17.098 68.9435 16.93C69.0515 16.762 69.1655 16.6 69.2855 16.444C69.4055 16.276 69.5375 16.108 69.6815 15.94C69.8615 15.748 70.0475 15.55 70.2395 15.346C70.4315 15.142 70.6415 14.914 70.8695 14.662C71.0975 14.41 71.3435 14.14 71.6075 13.852L73.9835 13.834C74.0195 13.834 74.0495 13.846 74.0735 13.87C74.1095 13.882 74.1335 13.9 74.1455 13.924C74.1575 13.948 74.1635 13.978 74.1635 14.014C74.1635 14.038 74.1575 14.068 74.1455 14.104C74.1335 14.14 74.0915 14.194 74.0195 14.266C73.6355 14.662 73.2575 15.058 72.8855 15.454C72.5255 15.838 72.1655 16.216 71.8055 16.588C71.4455 16.96 71.0915 17.332 70.7435 17.704C70.4075 18.064 70.0655 18.424 69.7175 18.784C69.3815 19.144 69.0455 19.498 68.7095 19.846C68.3855 20.194 68.0555 20.542 67.7195 20.89V18.154ZM77.5584 23.302C77.5584 22.93 77.5584 22.498 77.5584 22.006C77.5584 21.502 77.5584 20.968 77.5584 20.404C77.5584 19.84 77.5584 19.276 77.5584 18.712C77.5584 18.148 77.5584 17.614 77.5584 17.11C77.5584 16.606 77.5584 16.174 77.5584 15.814H77.3964C77.3124 15.814 77.2224 15.814 77.1264 15.814C77.0304 15.814 76.9284 15.814 76.8204 15.814C76.7124 15.814 76.6044 15.814 76.4964 15.814C76.3884 15.814 76.2864 15.814 76.1904 15.814C76.1304 15.814 76.0824 15.796 76.0464 15.76C76.0104 15.712 75.9924 15.664 75.9924 15.616C75.9924 15.328 75.9924 15.034 75.9924 14.734C75.9924 14.434 75.9924 14.14 75.9924 13.852C76.1844 13.852 76.4064 13.852 76.6584 13.852C76.9104 13.852 77.1684 13.852 77.4324 13.852C77.7084 13.852 77.9724 13.852 78.2244 13.852C78.4884 13.852 78.7344 13.852 78.9624 13.852C79.1904 13.852 79.3824 13.852 79.5384 13.852C79.5864 13.852 79.6224 13.864 79.6464 13.888C79.6704 13.9 79.6884 13.918 79.7004 13.942C79.7244 13.966 79.7364 14.002 79.7364 14.05C79.7364 14.626 79.7364 15.244 79.7364 15.904C79.7364 16.564 79.7364 17.236 79.7364 17.92C79.7364 18.592 79.7364 19.258 79.7364 19.918C79.7364 20.566 79.7364 21.19 79.7364 21.79C79.7364 21.97 79.7364 22.156 79.7364 22.348C79.7364 22.54 79.7364 22.732 79.7364 22.924C79.7364 23.116 79.7364 23.308 79.7364 23.5C79.3884 23.5 79.0584 23.5 78.7464 23.5C78.4464 23.5 78.1164 23.5 77.7564 23.5C77.6964 23.5 77.6484 23.482 77.6124 23.446C77.5764 23.41 77.5584 23.362 77.5584 23.302ZM77.1624 9.334C77.3784 9.334 77.5944 9.334 77.8104 9.334C78.0264 9.334 78.2484 9.334 78.4764 9.334C78.7164 9.334 78.9444 9.334 79.1604 9.334C79.3764 9.334 79.5924 9.334 79.8084 9.334C79.8684 9.334 79.9164 9.352 79.9524 9.388C79.9884 9.424 80.0064 9.472 80.0064 9.532V11.656C79.7904 11.656 79.5744 11.656 79.3584 11.656C79.1424 11.656 78.9144 11.656 78.6744 11.656C78.4464 11.656 78.2244 11.656 78.0084 11.656C77.7924 11.656 77.5764 11.656 77.3604 11.656C77.3004 11.656 77.2524 11.638 77.2164 11.602C77.1804 11.566 77.1624 11.518 77.1624 11.458V9.334ZM85.2049 23.662C84.8929 23.662 84.5869 23.662 84.2869 23.662C83.9989 23.662 83.7049 23.662 83.4049 23.662C83.1169 23.662 82.8109 23.662 82.4869 23.662C82.4509 23.662 82.4149 23.65 82.3789 23.626C82.3549 23.614 82.3309 23.59 82.3069 23.554C82.2949 23.53 82.2889 23.5 82.2889 23.464V20.71C82.6129 20.71 82.9189 20.71 83.2069 20.71C83.5069 20.71 83.8009 20.71 84.0889 20.71C84.3889 20.71 84.6949 20.71 85.0069 20.71C85.0549 20.71 85.0909 20.722 85.1149 20.746C85.1389 20.758 85.1569 20.776 85.1689 20.8C85.1929 20.824 85.2049 20.86 85.2049 20.908V23.662ZM86.0467 13.852H92.9407C93.0007 13.852 93.0487 13.87 93.0847 13.906C93.1207 13.942 93.1387 13.99 93.1387 14.05C93.1387 14.266 93.1387 14.476 93.1387 14.68C93.1387 14.872 93.1387 15.07 93.1387 15.274C93.1387 15.466 93.1387 15.67 93.1387 15.886H86.2447C86.2207 15.886 86.1967 15.88 86.1727 15.868C86.1487 15.856 86.1247 15.844 86.1007 15.832C86.0887 15.808 86.0767 15.784 86.0647 15.76C86.0527 15.736 86.0467 15.712 86.0467 15.688C86.0467 15.472 86.0467 15.268 86.0467 15.076C86.0467 14.872 86.0467 14.674 86.0467 14.482C86.0467 14.278 86.0467 14.068 86.0467 13.852ZM93.1387 21.43C93.1387 21.742 93.1387 22.054 93.1387 22.366C93.1387 22.678 93.1387 22.99 93.1387 23.302C93.1387 23.362 93.1207 23.41 93.0847 23.446C93.0487 23.482 93.0007 23.5 92.9407 23.5C92.8207 23.5 92.7007 23.5 92.5807 23.5C92.4607 23.5 92.3407 23.5 92.2207 23.5C92.1007 23.5 91.9807 23.5 91.8607 23.5C91.7407 23.5 91.6207 23.5 91.5007 23.5C90.8887 23.5 90.3427 23.428 89.8627 23.284C89.3827 23.128 88.9747 22.9 88.6387 22.6C88.3147 22.3 88.0627 21.91 87.8827 21.43C87.7147 20.938 87.6307 20.362 87.6307 19.702C87.6307 19.126 87.6307 18.55 87.6307 17.974C87.6307 17.386 87.6307 16.804 87.6307 16.228C87.6307 15.64 87.6307 15.058 87.6307 14.482C87.6307 13.894 87.6307 13.306 87.6307 12.718C87.6307 12.418 87.6307 12.118 87.6307 11.818C87.6307 11.518 87.6307 11.212 87.6307 10.9C87.9667 10.9 88.2967 10.9 88.6207 10.9C88.9567 10.9 89.2867 10.9 89.6107 10.9C89.6467 10.9 89.6767 10.912 89.7007 10.936C89.7367 10.948 89.7607 10.972 89.7727 11.008C89.7967 11.032 89.8087 11.062 89.8087 11.098C89.8087 11.806 89.8087 12.508 89.8087 13.204C89.8087 13.9 89.8087 14.602 89.8087 15.31C89.8087 16.018 89.8087 16.72 89.8087 17.416C89.8087 18.112 89.8087 18.814 89.8087 19.522C89.8087 19.906 89.8447 20.224 89.9167 20.476C89.9887 20.716 90.1087 20.914 90.2767 21.07C90.4087 21.202 90.5827 21.298 90.7987 21.358C91.0147 21.406 91.2727 21.43 91.5727 21.43C91.7287 21.43 91.8787 21.43 92.0227 21.43C92.1787 21.43 92.3287 21.43 92.4727 21.43C92.6287 21.43 92.7787 21.43 92.9227 21.43H93.1387ZM103.381 17.308C103.381 17.608 103.381 17.914 103.381 18.226C103.381 18.526 103.381 18.832 103.381 19.144C103.381 19.444 103.381 19.75 103.381 20.062C103.381 20.374 103.381 20.674 103.381 20.962C103.381 21.082 103.387 21.184 103.399 21.268C103.423 21.352 103.465 21.418 103.525 21.466C103.561 21.514 103.615 21.55 103.687 21.574C103.759 21.598 103.849 21.61 103.957 21.61C103.981 21.61 104.005 21.61 104.029 21.61C104.065 21.61 104.101 21.61 104.137 21.61H104.461C104.461 21.886 104.461 22.168 104.461 22.456C104.461 22.732 104.461 23.014 104.461 23.302C104.461 23.362 104.443 23.41 104.407 23.446C104.371 23.482 104.323 23.5 104.263 23.5C104.203 23.5 104.071 23.5 103.867 23.5C103.675 23.5 103.501 23.5 103.345 23.5C103.021 23.5 102.733 23.452 102.481 23.356C102.229 23.26 102.001 23.116 101.797 22.924C101.605 22.732 101.455 22.504 101.347 22.24C101.251 21.964 101.203 21.658 101.203 21.322C101.203 20.938 101.203 20.542 101.203 20.134C101.203 19.726 101.203 19.33 101.203 18.946C101.203 18.742 101.203 18.544 101.203 18.352C101.203 18.16 101.203 17.968 101.203 17.776C101.203 17.584 101.203 17.392 101.203 17.2C101.203 16.816 101.137 16.516 101.005 16.3C100.873 16.072 100.663 15.916 100.375 15.832C100.099 15.736 99.7147 15.688 99.2227 15.688C98.8747 15.688 98.5387 15.706 98.2147 15.742C97.9027 15.766 97.5967 15.814 97.2967 15.886C96.9967 15.946 96.6847 16.03 96.3607 16.138H96.0547C96.0547 15.862 96.0547 15.58 96.0547 15.292C96.0547 14.992 96.0547 14.71 96.0547 14.446C96.0547 14.398 96.0607 14.362 96.0727 14.338C96.0847 14.302 96.0967 14.278 96.1087 14.266C96.1687 14.206 96.3607 14.128 96.6847 14.032C97.0087 13.936 97.3987 13.852 97.8547 13.78C98.3107 13.708 98.7667 13.672 99.2227 13.672C99.9547 13.672 100.579 13.744 101.095 13.888C101.623 14.02 102.055 14.23 102.391 14.518C102.727 14.806 102.973 15.184 103.129 15.652C103.297 16.108 103.381 16.66 103.381 17.308ZM97.5307 20.836C97.5307 21.124 97.6147 21.352 97.7827 21.52C97.9507 21.676 98.2087 21.754 98.5567 21.754C98.9047 21.754 99.2407 21.712 99.5647 21.628C99.9007 21.532 100.231 21.388 100.555 21.196C100.879 21.004 101.203 20.74 101.527 20.404V21.952H101.005C100.825 22.324 100.591 22.642 100.303 22.906C100.027 23.158 99.6967 23.35 99.3127 23.482C98.9287 23.614 98.5087 23.68 98.0527 23.68C97.5007 23.68 97.0207 23.572 96.6127 23.356C96.2167 23.14 95.9047 22.84 95.6767 22.456C95.4607 22.072 95.3527 21.622 95.3527 21.106V20.494C95.3527 20.098 95.4187 19.744 95.5507 19.432C95.6827 19.108 95.8687 18.838 96.1087 18.622C96.3607 18.394 96.6607 18.22 97.0087 18.1C97.3567 17.968 97.7467 17.902 98.1787 17.902C98.5987 17.902 99.0067 17.902 99.4027 17.902C99.7987 17.902 100.183 17.902 100.555 17.902C100.927 17.902 101.293 17.902 101.653 17.902C101.749 17.902 101.821 17.992 101.869 18.172C101.929 18.34 101.965 18.532 101.977 18.748C101.989 18.964 101.995 19.15 101.995 19.306C101.587 19.306 101.197 19.306 100.825 19.306C100.465 19.306 100.099 19.306 99.7267 19.306C99.3547 19.306 98.9647 19.306 98.5567 19.306C98.3767 19.306 98.2207 19.33 98.0887 19.378C97.9687 19.414 97.8607 19.48 97.7647 19.576C97.6927 19.648 97.6327 19.744 97.5847 19.864C97.5487 19.972 97.5307 20.092 97.5307 20.224V20.836ZM118.89 23.5C118.698 23.5 118.47 23.5 118.206 23.5C117.942 23.5 117.684 23.5 117.432 23.5C117.18 23.5 116.964 23.5 116.784 23.5C116.748 23.5 116.712 23.494 116.676 23.482C116.652 23.458 116.628 23.434 116.604 23.41C116.592 23.386 116.586 23.35 116.586 23.302C116.586 22.846 116.586 22.39 116.586 21.934C116.586 21.478 116.586 21.028 116.586 20.584C116.586 20.14 116.586 19.702 116.586 19.27C116.586 18.838 116.586 18.418 116.586 18.01C116.586 17.602 116.586 17.206 116.586 16.822C116.586 16.45 116.514 16.186 116.37 16.03C116.238 15.862 116.016 15.778 115.704 15.778C115.464 15.778 115.224 15.85 114.984 15.994C114.744 16.126 114.51 16.33 114.282 16.606C114.054 16.87 113.838 17.206 113.634 17.614L113.328 15.256H114.174C114.378 14.896 114.6 14.596 114.84 14.356C115.08 14.116 115.344 13.942 115.632 13.834C115.932 13.714 116.268 13.654 116.64 13.654C116.94 13.654 117.222 13.702 117.486 13.798C117.762 13.894 118.002 14.05 118.206 14.266C118.422 14.47 118.59 14.728 118.71 15.04C118.83 15.34 118.89 15.706 118.89 16.138C118.89 16.474 118.89 16.858 118.89 17.29C118.89 17.71 118.89 18.166 118.89 18.658C118.89 19.138 118.89 19.636 118.89 20.152C118.89 20.668 118.89 21.184 118.89 21.7C118.89 22 118.89 22.3 118.89 22.6C118.89 22.9 118.89 23.2 118.89 23.5ZM113.868 23.5C113.7 23.5 113.478 23.5 113.202 23.5C112.926 23.5 112.656 23.5 112.392 23.5C112.128 23.5 111.918 23.5 111.762 23.5C111.726 23.5 111.69 23.494 111.654 23.482C111.63 23.458 111.606 23.434 111.582 23.41C111.57 23.386 111.564 23.35 111.564 23.302C111.564 22.846 111.564 22.39 111.564 21.934C111.564 21.478 111.564 21.028 111.564 20.584C111.564 20.14 111.564 19.702 111.564 19.27C111.564 18.826 111.564 18.4 111.564 17.992C111.564 17.584 111.564 17.188 111.564 16.804C111.564 16.552 111.534 16.354 111.474 16.21C111.414 16.054 111.324 15.946 111.204 15.886C111.096 15.814 110.952 15.778 110.772 15.778C110.532 15.778 110.286 15.85 110.034 15.994C109.794 16.126 109.548 16.33 109.296 16.606C109.056 16.882 108.822 17.23 108.594 17.65L108.216 15.256H109.026C109.254 14.92 109.494 14.632 109.746 14.392C110.01 14.152 110.292 13.972 110.592 13.852C110.892 13.72 111.204 13.654 111.528 13.654C111.864 13.654 112.17 13.702 112.446 13.798C112.734 13.894 112.98 14.038 113.184 14.23C113.4 14.422 113.568 14.668 113.688 14.968C113.808 15.268 113.868 15.622 113.868 16.03C113.868 16.306 113.868 16.672 113.868 17.128C113.868 17.584 113.868 18.124 113.868 18.748C113.868 19.372 113.868 20.08 113.868 20.872C113.868 21.664 113.868 22.54 113.868 23.5ZM108.846 23.5C108.69 23.5 108.522 23.5 108.342 23.5C108.162 23.5 107.976 23.5 107.784 23.5C107.592 23.5 107.406 23.5 107.226 23.5C107.046 23.5 106.884 23.5 106.74 23.5C106.704 23.5 106.674 23.5 106.65 23.5C106.626 23.488 106.602 23.476 106.578 23.464C106.566 23.44 106.554 23.416 106.542 23.392C106.542 23.368 106.542 23.338 106.542 23.302C106.542 22.45 106.542 21.598 106.542 20.746C106.542 19.894 106.542 19.048 106.542 18.208C106.542 17.356 106.542 16.504 106.542 15.652C106.542 15.316 106.542 14.998 106.542 14.698C106.542 14.386 106.542 14.104 106.542 13.852C106.662 13.852 106.794 13.852 106.938 13.852C107.094 13.852 107.25 13.852 107.406 13.852C107.574 13.852 107.73 13.852 107.874 13.852C108.03 13.852 108.168 13.852 108.288 13.852C108.288 13.852 108.312 13.954 108.36 14.158C108.42 14.362 108.486 14.596 108.558 14.86C108.63 15.124 108.696 15.358 108.756 15.562C108.816 15.766 108.846 15.868 108.846 15.868C108.846 16.636 108.846 17.44 108.846 18.28C108.846 19.12 108.846 19.978 108.846 20.854C108.846 21.718 108.846 22.6 108.846 23.5ZM122.717 23.302C122.717 22.93 122.717 22.498 122.717 22.006C122.717 21.502 122.717 20.968 122.717 20.404C122.717 19.84 122.717 19.276 122.717 18.712C122.717 18.148 122.717 17.614 122.717 17.11C122.717 16.606 122.717 16.174 122.717 15.814H122.555C122.471 15.814 122.381 15.814 122.285 15.814C122.189 15.814 122.087 15.814 121.979 15.814C121.871 15.814 121.763 15.814 121.655 15.814C121.547 15.814 121.445 15.814 121.349 15.814C121.289 15.814 121.241 15.796 121.205 15.76C121.169 15.712 121.151 15.664 121.151 15.616C121.151 15.328 121.151 15.034 121.151 14.734C121.151 14.434 121.151 14.14 121.151 13.852C121.343 13.852 121.565 13.852 121.817 13.852C122.069 13.852 122.327 13.852 122.591 13.852C122.867 13.852 123.131 13.852 123.383 13.852C123.647 13.852 123.893 13.852 124.121 13.852C124.349 13.852 124.541 13.852 124.697 13.852C124.745 13.852 124.781 13.864 124.805 13.888C124.829 13.9 124.847 13.918 124.859 13.942C124.883 13.966 124.895 14.002 124.895 14.05C124.895 14.626 124.895 15.244 124.895 15.904C124.895 16.564 124.895 17.236 124.895 17.92C124.895 18.592 124.895 19.258 124.895 19.918C124.895 20.566 124.895 21.19 124.895 21.79C124.895 21.97 124.895 22.156 124.895 22.348C124.895 22.54 124.895 22.732 124.895 22.924C124.895 23.116 124.895 23.308 124.895 23.5C124.547 23.5 124.217 23.5 123.905 23.5C123.605 23.5 123.275 23.5 122.915 23.5C122.855 23.5 122.807 23.482 122.771 23.446C122.735 23.41 122.717 23.362 122.717 23.302ZM122.321 9.334C122.537 9.334 122.753 9.334 122.969 9.334C123.185 9.334 123.407 9.334 123.635 9.334C123.875 9.334 124.103 9.334 124.319 9.334C124.535 9.334 124.751 9.334 124.967 9.334C125.027 9.334 125.075 9.352 125.111 9.388C125.147 9.424 125.165 9.472 125.165 9.532V11.656C124.949 11.656 124.733 11.656 124.517 11.656C124.301 11.656 124.073 11.656 123.833 11.656C123.605 11.656 123.383 11.656 123.167 11.656C122.951 11.656 122.735 11.656 122.519 11.656C122.459 11.656 122.411 11.638 122.375 11.602C122.339 11.566 122.321 11.518 122.321 11.458V9.334ZM128.308 12.286C128.308 11.854 128.308 11.458 128.308 11.098C128.308 10.726 128.308 10.36 128.308 10C128.596 10 128.8 10 128.92 10C129.052 10 129.148 10 129.208 10C129.268 10 129.322 10 129.37 10C129.43 10 129.526 10 129.658 10C129.79 10 130 10 130.288 10C130.324 10 130.354 10.012 130.378 10.036C130.414 10.048 130.438 10.066 130.45 10.09C130.474 10.114 130.486 10.15 130.486 10.198C130.486 10.906 130.486 11.608 130.486 12.304C130.486 13 130.486 13.696 130.486 14.392C130.486 15.076 130.486 15.766 130.486 16.462C130.486 17.158 130.486 17.854 130.486 18.55C130.486 19.246 130.486 19.942 130.486 20.638C130.486 20.782 130.492 20.908 130.504 21.016C130.528 21.112 130.576 21.19 130.648 21.25C130.72 21.322 130.804 21.376 130.9 21.412C131.008 21.436 131.14 21.448 131.296 21.448C131.344 21.448 131.404 21.448 131.476 21.448C131.548 21.448 131.614 21.448 131.674 21.448C131.746 21.448 131.812 21.448 131.872 21.448C131.944 21.448 131.992 21.448 132.016 21.448H132.196C132.196 21.736 132.196 22.048 132.196 22.384C132.196 22.708 132.196 23.014 132.196 23.302C132.196 23.362 132.178 23.41 132.142 23.446C132.106 23.482 132.058 23.5 131.998 23.5C131.95 23.5 131.902 23.5 131.854 23.5C131.818 23.5 131.758 23.5 131.674 23.5C131.602 23.5 131.494 23.5 131.35 23.5C131.206 23.5 131.002 23.5 130.738 23.5C130.33 23.5 129.976 23.446 129.676 23.338C129.376 23.23 129.124 23.068 128.92 22.852C128.716 22.624 128.56 22.342 128.452 22.006C128.356 21.67 128.308 21.274 128.308 20.818C128.308 20.11 128.308 19.402 128.308 18.694C128.308 17.974 128.308 17.26 128.308 16.552C128.308 15.844 128.308 15.136 128.308 14.428C128.308 13.708 128.308 12.994 128.308 12.286ZM142.431 23.5C142.083 23.5 141.753 23.5 141.441 23.5C141.141 23.5 140.811 23.5 140.451 23.5C140.415 23.5 140.379 23.494 140.343 23.482C140.319 23.458 140.295 23.434 140.271 23.41C140.259 23.386 140.253 23.35 140.253 23.302C140.253 22.582 140.253 21.868 140.253 21.16C140.253 20.44 140.253 19.72 140.253 19C140.253 18.28 140.253 17.566 140.253 16.858C140.253 16.474 140.163 16.192 139.983 16.012C139.815 15.832 139.551 15.742 139.191 15.742C138.975 15.742 138.741 15.778 138.489 15.85C138.249 15.91 137.997 16.012 137.733 16.156C137.481 16.3 137.235 16.474 136.995 16.678C136.755 16.882 136.527 17.128 136.311 17.416V15.436H136.905C137.157 15.076 137.433 14.764 137.733 14.5C138.045 14.236 138.381 14.032 138.741 13.888C139.101 13.732 139.485 13.654 139.893 13.654C140.289 13.654 140.643 13.72 140.955 13.852C141.267 13.972 141.531 14.158 141.747 14.41C141.963 14.65 142.131 14.938 142.251 15.274C142.371 15.61 142.431 15.988 142.431 16.408C142.431 16.984 142.431 17.566 142.431 18.154C142.431 18.742 142.431 19.33 142.431 19.918C142.431 20.506 142.431 21.094 142.431 21.682C142.431 21.994 142.431 22.3 142.431 22.6C142.431 22.9 142.431 23.2 142.431 23.5ZM136.581 23.5C136.353 23.5 136.131 23.5 135.915 23.5C135.711 23.5 135.501 23.5 135.285 23.5C135.069 23.5 134.847 23.5 134.619 23.5C134.583 23.5 134.553 23.5 134.529 23.5C134.505 23.488 134.481 23.476 134.457 23.464C134.445 23.44 134.433 23.416 134.421 23.392C134.421 23.368 134.421 23.338 134.421 23.302C134.421 22.654 134.421 22.012 134.421 21.376C134.421 20.74 134.421 20.104 134.421 19.468C134.421 18.832 134.421 18.196 134.421 17.56C134.421 16.912 134.421 16.27 134.421 15.634C134.421 15.274 134.421 14.944 134.421 14.644C134.421 14.332 134.421 14.068 134.421 13.852C134.685 13.852 134.925 13.852 135.141 13.852C135.357 13.852 135.567 13.852 135.771 13.852C135.975 13.852 136.179 13.852 136.383 13.852C136.431 13.852 136.467 13.864 136.491 13.888C136.515 13.9 136.533 13.918 136.545 13.942C136.569 13.966 136.581 14.002 136.581 14.05C136.581 15.094 136.581 16.144 136.581 17.2C136.581 18.244 136.581 19.294 136.581 20.35C136.581 21.394 136.581 22.444 136.581 23.5ZM152.846 17.308C152.846 17.608 152.846 17.914 152.846 18.226C152.846 18.526 152.846 18.832 152.846 19.144C152.846 19.444 152.846 19.75 152.846 20.062C152.846 20.374 152.846 20.674 152.846 20.962C152.846 21.082 152.852 21.184 152.864 21.268C152.888 21.352 152.93 21.418 152.99 21.466C153.026 21.514 153.08 21.55 153.152 21.574C153.224 21.598 153.314 21.61 153.422 21.61C153.446 21.61 153.47 21.61 153.494 21.61C153.53 21.61 153.566 21.61 153.602 21.61H153.926C153.926 21.886 153.926 22.168 153.926 22.456C153.926 22.732 153.926 23.014 153.926 23.302C153.926 23.362 153.908 23.41 153.872 23.446C153.836 23.482 153.788 23.5 153.728 23.5C153.668 23.5 153.536 23.5 153.332 23.5C153.14 23.5 152.966 23.5 152.81 23.5C152.486 23.5 152.198 23.452 151.946 23.356C151.694 23.26 151.466 23.116 151.262 22.924C151.07 22.732 150.92 22.504 150.812 22.24C150.716 21.964 150.668 21.658 150.668 21.322C150.668 20.938 150.668 20.542 150.668 20.134C150.668 19.726 150.668 19.33 150.668 18.946C150.668 18.742 150.668 18.544 150.668 18.352C150.668 18.16 150.668 17.968 150.668 17.776C150.668 17.584 150.668 17.392 150.668 17.2C150.668 16.816 150.602 16.516 150.47 16.3C150.338 16.072 150.128 15.916 149.84 15.832C149.564 15.736 149.18 15.688 148.688 15.688C148.34 15.688 148.004 15.706 147.68 15.742C147.368 15.766 147.062 15.814 146.762 15.886C146.462 15.946 146.15 16.03 145.826 16.138H145.52C145.52 15.862 145.52 15.58 145.52 15.292C145.52 14.992 145.52 14.71 145.52 14.446C145.52 14.398 145.526 14.362 145.538 14.338C145.55 14.302 145.562 14.278 145.574 14.266C145.634 14.206 145.826 14.128 146.15 14.032C146.474 13.936 146.864 13.852 147.32 13.78C147.776 13.708 148.232 13.672 148.688 13.672C149.42 13.672 150.044 13.744 150.56 13.888C151.088 14.02 151.52 14.23 151.856 14.518C152.192 14.806 152.438 15.184 152.594 15.652C152.762 16.108 152.846 16.66 152.846 17.308ZM146.996 20.836C146.996 21.124 147.08 21.352 147.248 21.52C147.416 21.676 147.674 21.754 148.022 21.754C148.37 21.754 148.706 21.712 149.03 21.628C149.366 21.532 149.696 21.388 150.02 21.196C150.344 21.004 150.668 20.74 150.992 20.404V21.952H150.47C150.29 22.324 150.056 22.642 149.768 22.906C149.492 23.158 149.162 23.35 148.778 23.482C148.394 23.614 147.974 23.68 147.518 23.68C146.966 23.68 146.486 23.572 146.078 23.356C145.682 23.14 145.37 22.84 145.142 22.456C144.926 22.072 144.818 21.622 144.818 21.106V20.494C144.818 20.098 144.884 19.744 145.016 19.432C145.148 19.108 145.334 18.838 145.574 18.622C145.826 18.394 146.126 18.22 146.474 18.1C146.822 17.968 147.212 17.902 147.644 17.902C148.064 17.902 148.472 17.902 148.868 17.902C149.264 17.902 149.648 17.902 150.02 17.902C150.392 17.902 150.758 17.902 151.118 17.902C151.214 17.902 151.286 17.992 151.334 18.172C151.394 18.34 151.43 18.532 151.442 18.748C151.454 18.964 151.46 19.15 151.46 19.306C151.052 19.306 150.662 19.306 150.29 19.306C149.93 19.306 149.564 19.306 149.192 19.306C148.82 19.306 148.43 19.306 148.022 19.306C147.842 19.306 147.686 19.33 147.554 19.378C147.434 19.414 147.326 19.48 147.23 19.576C147.158 19.648 147.098 19.744 147.05 19.864C147.014 19.972 146.996 20.092 146.996 20.224V20.836ZM158.689 13.654C159.097 13.654 159.463 13.72 159.787 13.852C160.123 13.972 160.423 14.146 160.687 14.374C160.951 14.602 161.179 14.878 161.371 15.202H161.965V17.29C161.581 16.762 161.161 16.372 160.705 16.12C160.261 15.868 159.811 15.742 159.355 15.742C159.031 15.742 158.749 15.814 158.509 15.958C158.281 16.09 158.107 16.294 157.987 16.57C157.867 16.834 157.807 17.164 157.807 17.56V19.828C157.807 20.14 157.843 20.41 157.915 20.638C157.987 20.866 158.095 21.052 158.239 21.196C158.371 21.316 158.527 21.412 158.707 21.484C158.899 21.556 159.115 21.592 159.355 21.592C159.655 21.592 159.955 21.544 160.255 21.448C160.555 21.34 160.849 21.172 161.137 20.944C161.425 20.704 161.701 20.392 161.965 20.008V22.078H161.371C161.167 22.414 160.927 22.702 160.651 22.942C160.375 23.182 160.069 23.368 159.733 23.5C159.409 23.62 159.049 23.68 158.653 23.68C158.209 23.68 157.795 23.602 157.411 23.446C157.039 23.29 156.721 23.062 156.457 22.762C156.193 22.45 155.989 22.078 155.845 21.646C155.701 21.214 155.629 20.722 155.629 20.17V17.2C155.629 16.648 155.701 16.15 155.845 15.706C155.989 15.262 156.193 14.89 156.457 14.59C156.721 14.278 157.039 14.044 157.411 13.888C157.795 13.732 158.221 13.654 158.689 13.654ZM163.657 10C163.705 10 163.741 10.012 163.765 10.036C163.789 10.048 163.807 10.066 163.819 10.09C163.843 10.114 163.855 10.15 163.855 10.198C163.855 11.098 163.855 12.01 163.855 12.934C163.855 13.858 163.855 14.782 163.855 15.706C163.855 16.618 163.855 17.524 163.855 18.424C163.855 19.324 163.855 20.206 163.855 21.07C163.855 21.502 163.855 21.922 163.855 22.33C163.855 22.726 163.855 23.116 163.855 23.5C163.699 23.5 163.537 23.5 163.369 23.5C163.201 23.5 163.033 23.5 162.865 23.5C162.709 23.5 162.547 23.5 162.379 23.5C162.211 23.5 162.049 23.5 161.893 23.5C161.857 23.5 161.821 23.494 161.785 23.482C161.761 23.458 161.737 23.434 161.713 23.41C161.701 23.386 161.695 23.35 161.695 23.302C161.695 22.342 161.695 21.382 161.695 20.422C161.695 19.462 161.695 18.508 161.695 17.56C161.695 16.6 161.695 15.64 161.695 14.68C161.695 13.72 161.695 12.76 161.695 11.8C161.695 11.5 161.695 11.2 161.695 10.9C161.695 10.6 161.695 10.3 161.695 10C161.851 10 162.013 10 162.181 10C162.349 10 162.511 10 162.667 10C162.835 10 163.003 10 163.171 10C163.339 10 163.501 10 163.657 10ZM168.761 13.852C168.809 13.852 168.845 13.864 168.869 13.888C168.893 13.9 168.911 13.918 168.923 13.942C168.947 13.966 168.959 14.002 168.959 14.05C168.959 14.59 168.959 15.142 168.959 15.706C168.959 16.258 168.959 16.81 168.959 17.362C168.959 17.902 168.959 18.436 168.959 18.964C168.959 19.492 168.959 20.002 168.959 20.494C168.959 20.818 169.043 21.07 169.211 21.25C169.391 21.418 169.625 21.502 169.913 21.502C170.189 21.502 170.453 21.472 170.705 21.412C170.969 21.352 171.215 21.262 171.443 21.142C171.671 21.01 171.899 20.848 172.127 20.656C172.355 20.452 172.577 20.212 172.793 19.936V21.934H172.199C171.959 22.294 171.701 22.612 171.425 22.888C171.149 23.152 170.837 23.356 170.489 23.5C170.153 23.632 169.763 23.698 169.319 23.698C168.947 23.698 168.599 23.632 168.275 23.5C167.963 23.38 167.699 23.2 167.483 22.96C167.267 22.72 167.093 22.438 166.961 22.114C166.841 21.79 166.781 21.424 166.781 21.016C166.781 20.476 166.781 19.936 166.781 19.396C166.781 18.856 166.781 18.316 166.781 17.776C166.781 17.236 166.781 16.702 166.781 16.174C166.781 15.79 166.781 15.406 166.781 15.022C166.781 14.626 166.781 14.236 166.781 13.852C167.117 13.852 167.447 13.852 167.771 13.852C168.107 13.852 168.437 13.852 168.761 13.852ZM174.467 13.852C174.515 13.852 174.551 13.864 174.575 13.888C174.599 13.9 174.617 13.918 174.629 13.942C174.653 13.966 174.665 14.002 174.665 14.05C174.665 14.902 174.665 15.754 174.665 16.606C174.665 17.458 174.665 18.316 174.665 19.18C174.665 20.032 174.665 20.878 174.665 21.718C174.665 21.958 174.665 22.186 174.665 22.402C174.665 22.618 174.665 22.822 174.665 23.014C174.665 23.194 174.665 23.356 174.665 23.5C174.437 23.5 174.209 23.5 173.981 23.5C173.753 23.5 173.531 23.5 173.315 23.5C173.111 23.5 172.907 23.5 172.703 23.5C172.667 23.5 172.631 23.494 172.595 23.482C172.571 23.458 172.547 23.434 172.523 23.41C172.511 23.386 172.505 23.35 172.505 23.302C172.505 22.246 172.505 21.196 172.505 20.152C172.505 19.096 172.505 18.046 172.505 17.002C172.505 15.946 172.505 14.896 172.505 13.852C172.733 13.852 172.955 13.852 173.171 13.852C173.387 13.852 173.603 13.852 173.819 13.852C174.035 13.852 174.251 13.852 174.467 13.852ZM179.828 23.662C179.516 23.662 179.21 23.662 178.91 23.662C178.622 23.662 178.328 23.662 178.028 23.662C177.74 23.662 177.434 23.662 177.11 23.662C177.074 23.662 177.038 23.65 177.002 23.626C176.978 23.614 176.954 23.59 176.93 23.554C176.918 23.53 176.912 23.5 176.912 23.464V20.71C177.236 20.71 177.542 20.71 177.83 20.71C178.13 20.71 178.424 20.71 178.712 20.71C179.012 20.71 179.318 20.71 179.63 20.71C179.678 20.71 179.714 20.722 179.738 20.746C179.762 20.758 179.78 20.776 179.792 20.8C179.816 20.824 179.828 20.86 179.828 20.908V23.662ZM180.67 13.852H187.564C187.624 13.852 187.672 13.87 187.708 13.906C187.744 13.942 187.762 13.99 187.762 14.05C187.762 14.266 187.762 14.476 187.762 14.68C187.762 14.872 187.762 15.07 187.762 15.274C187.762 15.466 187.762 15.67 187.762 15.886H180.868C180.844 15.886 180.82 15.88 180.796 15.868C180.772 15.856 180.748 15.844 180.724 15.832C180.712 15.808 180.7 15.784 180.688 15.76C180.676 15.736 180.67 15.712 180.67 15.688C180.67 15.472 180.67 15.268 180.67 15.076C180.67 14.872 180.67 14.674 180.67 14.482C180.67 14.278 180.67 14.068 180.67 13.852ZM187.762 21.43C187.762 21.742 187.762 22.054 187.762 22.366C187.762 22.678 187.762 22.99 187.762 23.302C187.762 23.362 187.744 23.41 187.708 23.446C187.672 23.482 187.624 23.5 187.564 23.5C187.444 23.5 187.324 23.5 187.204 23.5C187.084 23.5 186.964 23.5 186.844 23.5C186.724 23.5 186.604 23.5 186.484 23.5C186.364 23.5 186.244 23.5 186.124 23.5C185.512 23.5 184.966 23.428 184.486 23.284C184.006 23.128 183.598 22.9 183.262 22.6C182.938 22.3 182.686 21.91 182.506 21.43C182.338 20.938 182.254 20.362 182.254 19.702C182.254 19.126 182.254 18.55 182.254 17.974C182.254 17.386 182.254 16.804 182.254 16.228C182.254 15.64 182.254 15.058 182.254 14.482C182.254 13.894 182.254 13.306 182.254 12.718C182.254 12.418 182.254 12.118 182.254 11.818C182.254 11.518 182.254 11.212 182.254 10.9C182.59 10.9 182.92 10.9 183.244 10.9C183.58 10.9 183.91 10.9 184.234 10.9C184.27 10.9 184.3 10.912 184.324 10.936C184.36 10.948 184.384 10.972 184.396 11.008C184.42 11.032 184.432 11.062 184.432 11.098C184.432 11.806 184.432 12.508 184.432 13.204C184.432 13.9 184.432 14.602 184.432 15.31C184.432 16.018 184.432 16.72 184.432 17.416C184.432 18.112 184.432 18.814 184.432 19.522C184.432 19.906 184.468 20.224 184.54 20.476C184.612 20.716 184.732 20.914 184.9 21.07C185.032 21.202 185.206 21.298 185.422 21.358C185.638 21.406 185.896 21.43 186.196 21.43C186.352 21.43 186.502 21.43 186.646 21.43C186.802 21.43 186.952 21.43 187.096 21.43C187.252 21.43 187.402 21.43 187.546 21.43H187.762ZM194.332 13.654C195.124 13.654 195.82 13.816 196.42 14.14C197.02 14.452 197.488 14.908 197.824 15.508C198.16 16.096 198.328 16.816 198.328 17.668V19.108C198.328 19.144 198.322 19.18 198.31 19.216C198.298 19.24 198.274 19.258 198.238 19.27C198.214 19.282 198.184 19.288 198.148 19.288H193.828C193.636 19.288 193.432 19.288 193.216 19.288C193.012 19.288 192.808 19.288 192.604 19.288H191.938L191.812 17.902H196.222C196.222 17.842 196.222 17.794 196.222 17.758C196.222 17.71 196.222 17.656 196.222 17.596C196.222 17.212 196.18 16.882 196.096 16.606C196.012 16.33 195.886 16.108 195.718 15.94C195.562 15.784 195.37 15.67 195.142 15.598C194.914 15.526 194.644 15.49 194.332 15.49C193.684 15.49 193.192 15.658 192.856 15.994C192.52 16.318 192.352 16.864 192.352 17.632V19.702C192.352 19.93 192.37 20.14 192.406 20.332C192.442 20.512 192.496 20.674 192.568 20.818C192.64 20.962 192.73 21.088 192.838 21.196C193.054 21.412 193.33 21.568 193.666 21.664C194.002 21.76 194.398 21.808 194.854 21.808C195.286 21.808 195.67 21.784 196.006 21.736C196.342 21.688 196.654 21.622 196.942 21.538C197.242 21.442 197.53 21.334 197.806 21.214H198.13C198.13 21.49 198.13 21.772 198.13 22.06C198.13 22.336 198.13 22.606 198.13 22.87C198.13 22.894 198.124 22.918 198.112 22.942C198.1 22.966 198.082 22.99 198.058 23.014C197.95 23.134 197.728 23.248 197.392 23.356C197.056 23.452 196.66 23.53 196.204 23.59C195.76 23.662 195.304 23.698 194.836 23.698C194.068 23.698 193.39 23.608 192.802 23.428C192.214 23.248 191.728 22.984 191.344 22.636C190.96 22.288 190.666 21.868 190.462 21.376C190.27 20.884 190.174 20.326 190.174 19.702V17.704C190.174 17.056 190.27 16.486 190.462 15.994C190.666 15.49 190.954 15.064 191.326 14.716C191.71 14.368 192.154 14.104 192.658 13.924C193.174 13.744 193.732 13.654 194.332 13.654ZM205.251 13.654C205.707 13.654 206.103 13.684 206.439 13.744C206.775 13.804 207.051 13.876 207.267 13.96C207.483 14.032 207.621 14.11 207.681 14.194C207.717 14.218 207.735 14.242 207.735 14.266C207.747 14.29 207.753 14.32 207.753 14.356C207.753 14.656 207.753 14.962 207.753 15.274C207.753 15.574 207.753 15.874 207.753 16.174H207.429C207.129 16.03 206.799 15.916 206.439 15.832C206.079 15.748 205.683 15.706 205.251 15.706C204.795 15.706 204.399 15.79 204.063 15.958C203.727 16.126 203.469 16.384 203.289 16.732C203.109 17.08 203.019 17.53 203.019 18.082V19.324C203.019 19.732 203.073 20.086 203.181 20.386C203.289 20.686 203.445 20.932 203.649 21.124C203.841 21.304 204.069 21.436 204.333 21.52C204.597 21.604 204.903 21.646 205.251 21.646C205.551 21.646 205.827 21.628 206.079 21.592C206.331 21.556 206.565 21.508 206.781 21.448C207.009 21.376 207.225 21.298 207.429 21.214H207.753C207.753 21.514 207.753 21.82 207.753 22.132C207.753 22.432 207.753 22.732 207.753 23.032C207.753 23.056 207.747 23.08 207.735 23.104C207.735 23.128 207.723 23.152 207.699 23.176C207.627 23.248 207.483 23.326 207.267 23.41C207.063 23.494 206.793 23.56 206.457 23.608C206.121 23.668 205.719 23.698 205.251 23.698C204.555 23.698 203.931 23.608 203.379 23.428C202.827 23.236 202.353 22.96 201.957 22.6C201.573 22.228 201.279 21.778 201.075 21.25C200.883 20.71 200.787 20.104 200.787 19.432V18.028C200.787 17.14 200.973 16.372 201.345 15.724C201.729 15.064 202.257 14.554 202.929 14.194C203.601 13.834 204.375 13.654 205.251 13.654ZM210.363 23.5C210.327 23.5 210.291 23.494 210.255 23.482C210.231 23.458 210.207 23.434 210.183 23.41C210.171 23.386 210.165 23.35 210.165 23.302C210.165 22.342 210.165 21.382 210.165 20.422C210.165 19.462 210.165 18.502 210.165 17.542C210.165 16.57 210.165 15.604 210.165 14.644C210.165 13.684 210.165 12.73 210.165 11.782C210.165 11.422 210.165 11.092 210.165 10.792C210.165 10.48 210.165 10.216 210.165 10C210.429 10 210.669 10 210.885 10C211.101 10 211.311 10 211.515 10C211.719 10 211.923 10 212.127 10C212.175 10 212.211 10.012 212.235 10.036C212.259 10.048 212.277 10.066 212.289 10.09C212.313 10.114 212.325 10.15 212.325 10.198C212.325 11.302 212.325 12.412 212.325 13.528C212.325 14.632 212.325 15.742 212.325 16.858C212.325 17.962 212.325 19.072 212.325 20.188C212.325 21.292 212.325 22.396 212.325 23.5C212.097 23.5 211.875 23.5 211.659 23.5C211.455 23.5 211.245 23.5 211.029 23.5C210.813 23.5 210.591 23.5 210.363 23.5ZM212.055 17.416V15.436H212.649C212.841 15.16 213.045 14.914 213.261 14.698C213.477 14.482 213.705 14.296 213.945 14.14C214.197 13.984 214.461 13.864 214.737 13.78C215.025 13.696 215.325 13.654 215.637 13.654C216.033 13.654 216.387 13.72 216.699 13.852C217.011 13.972 217.275 14.158 217.491 14.41C217.707 14.65 217.875 14.938 217.995 15.274C218.115 15.61 218.175 15.988 218.175 16.408C218.175 16.984 218.175 17.566 218.175 18.154C218.175 18.742 218.175 19.33 218.175 19.918C218.175 20.506 218.175 21.094 218.175 21.682C218.175 21.994 218.175 22.3 218.175 22.6C218.175 22.9 218.175 23.2 218.175 23.5C217.827 23.5 217.497 23.5 217.185 23.5C216.885 23.5 216.555 23.5 216.195 23.5C216.159 23.5 216.123 23.494 216.087 23.482C216.063 23.458 216.039 23.434 216.015 23.41C216.003 23.386 215.997 23.35 215.997 23.302C215.997 22.582 215.997 21.868 215.997 21.16C215.997 20.44 215.997 19.72 215.997 19C215.997 18.28 215.997 17.566 215.997 16.858C215.997 16.474 215.907 16.192 215.727 16.012C215.559 15.832 215.295 15.742 214.935 15.742C214.719 15.742 214.485 15.778 214.233 15.85C213.993 15.91 213.741 16.012 213.477 16.156C213.225 16.3 212.979 16.474 212.739 16.678C212.499 16.882 212.271 17.128 212.055 17.416Z" fill="#03B051"/>
<path d="M44.354 31.1H50.15C50.19 31.1 50.222 31.112 50.246 31.136C50.27 31.16 50.282 31.192 50.282 31.232C50.282 31.448 50.282 31.644 50.282 31.82C50.282 31.996 50.282 32.192 50.282 32.408H44.486C44.462 32.408 44.438 32.404 44.414 32.396C44.398 32.38 44.382 32.364 44.366 32.348C44.358 32.324 44.354 32.3 44.354 32.276C44.354 32.06 44.354 31.864 44.354 31.688C44.354 31.512 44.354 31.316 44.354 31.1ZM48.086 39.5C47.854 39.5 47.622 39.5 47.39 39.5C47.158 39.5 46.922 39.5 46.682 39.5C46.642 39.5 46.61 39.488 46.586 39.464C46.562 39.44 46.55 39.408 46.55 39.368C46.55 38.72 46.55 38.088 46.55 37.472C46.55 36.848 46.55 36.224 46.55 35.6C46.55 34.976 46.55 34.352 46.55 33.728C46.55 33.104 46.55 32.468 46.55 31.82H48.206L48.086 32.12C48.086 32.296 48.086 32.476 48.086 32.66C48.086 32.844 48.086 33.028 48.086 33.212C48.086 33.388 48.086 33.56 48.086 33.728C48.086 34.24 48.086 34.744 48.086 35.24C48.086 35.736 48.086 36.236 48.086 36.74C48.086 37.244 48.086 37.768 48.086 38.312C48.086 38.528 48.086 38.736 48.086 38.936C48.086 39.136 48.086 39.324 48.086 39.5ZM56.5105 35.372C56.5105 35.572 56.5105 35.776 56.5105 35.984C56.5105 36.184 56.5105 36.388 56.5105 36.596C56.5105 36.796 56.5105 37 56.5105 37.208C56.5105 37.416 56.5105 37.616 56.5105 37.808C56.5105 37.888 56.5145 37.956 56.5225 38.012C56.5385 38.068 56.5665 38.112 56.6065 38.144C56.6305 38.176 56.6665 38.2 56.7145 38.216C56.7625 38.232 56.8225 38.24 56.8945 38.24C56.9105 38.24 56.9265 38.24 56.9425 38.24C56.9665 38.24 56.9905 38.24 57.0145 38.24H57.2305C57.2305 38.424 57.2305 38.612 57.2305 38.804C57.2305 38.988 57.2305 39.176 57.2305 39.368C57.2305 39.408 57.2185 39.44 57.1945 39.464C57.1705 39.488 57.1385 39.5 57.0985 39.5C57.0585 39.5 56.9705 39.5 56.8345 39.5C56.7065 39.5 56.5905 39.5 56.4865 39.5C56.2705 39.5 56.0785 39.468 55.9105 39.404C55.7425 39.34 55.5905 39.244 55.4545 39.116C55.3265 38.988 55.2265 38.836 55.1545 38.66C55.0905 38.476 55.0585 38.272 55.0585 38.048C55.0585 37.792 55.0585 37.528 55.0585 37.256C55.0585 36.984 55.0585 36.72 55.0585 36.464C55.0585 36.328 55.0585 36.196 55.0585 36.068C55.0585 35.94 55.0585 35.812 55.0585 35.684C55.0585 35.556 55.0585 35.428 55.0585 35.3C55.0585 35.044 55.0145 34.844 54.9265 34.7C54.8385 34.548 54.6985 34.444 54.5065 34.388C54.3225 34.324 54.0665 34.292 53.7385 34.292C53.5065 34.292 53.2825 34.304 53.0665 34.328C52.8585 34.344 52.6545 34.376 52.4545 34.424C52.2545 34.464 52.0465 34.52 51.8305 34.592H51.6265C51.6265 34.408 51.6265 34.22 51.6265 34.028C51.6265 33.828 51.6265 33.64 51.6265 33.464C51.6265 33.432 51.6305 33.408 51.6385 33.392C51.6465 33.368 51.6545 33.352 51.6625 33.344C51.7025 33.304 51.8305 33.252 52.0465 33.188C52.2625 33.124 52.5225 33.068 52.8265 33.02C53.1305 32.972 53.4345 32.948 53.7385 32.948C54.2265 32.948 54.6425 32.996 54.9865 33.092C55.3385 33.18 55.6265 33.32 55.8505 33.512C56.0745 33.704 56.2385 33.956 56.3425 34.268C56.4545 34.572 56.5105 34.94 56.5105 35.372ZM52.6105 37.724C52.6105 37.916 52.6665 38.068 52.7785 38.18C52.8905 38.284 53.0625 38.336 53.2945 38.336C53.5265 38.336 53.7505 38.308 53.9665 38.252C54.1905 38.188 54.4105 38.092 54.6265 37.964C54.8425 37.836 55.0585 37.66 55.2745 37.436V38.468H54.9265C54.8065 38.716 54.6505 38.928 54.4585 39.104C54.2745 39.272 54.0545 39.4 53.7985 39.488C53.5425 39.576 53.2625 39.62 52.9585 39.62C52.5905 39.62 52.2705 39.548 51.9985 39.404C51.7345 39.26 51.5265 39.06 51.3745 38.804C51.2305 38.548 51.1585 38.248 51.1585 37.904V37.496C51.1585 37.232 51.2025 36.996 51.2905 36.788C51.3785 36.572 51.5025 36.392 51.6625 36.248C51.8305 36.096 52.0305 35.98 52.2625 35.9C52.4945 35.812 52.7545 35.768 53.0425 35.768C53.3225 35.768 53.5945 35.768 53.8585 35.768C54.1225 35.768 54.3785 35.768 54.6265 35.768C54.8745 35.768 55.1185 35.768 55.3585 35.768C55.4225 35.768 55.4705 35.828 55.5025 35.948C55.5425 36.06 55.5665 36.188 55.5745 36.332C55.5825 36.476 55.5865 36.6 55.5865 36.704C55.3145 36.704 55.0545 36.704 54.8065 36.704C54.5665 36.704 54.3225 36.704 54.0745 36.704C53.8265 36.704 53.5665 36.704 53.2945 36.704C53.1745 36.704 53.0705 36.72 52.9825 36.752C52.9025 36.776 52.8305 36.82 52.7665 36.884C52.7185 36.932 52.6785 36.996 52.6465 37.076C52.6225 37.148 52.6105 37.228 52.6105 37.316V37.724ZM67.0898 39.5C66.9618 39.5 66.8098 39.5 66.6338 39.5C66.4578 39.5 66.2858 39.5 66.1178 39.5C65.9498 39.5 65.8058 39.5 65.6858 39.5C65.6618 39.5 65.6378 39.496 65.6138 39.488C65.5978 39.472 65.5818 39.456 65.5658 39.44C65.5578 39.424 65.5538 39.4 65.5538 39.368C65.5538 39.064 65.5538 38.76 65.5538 38.456C65.5538 38.152 65.5538 37.852 65.5538 37.556C65.5538 37.26 65.5538 36.968 65.5538 36.68C65.5538 36.392 65.5538 36.112 65.5538 35.84C65.5538 35.568 65.5538 35.304 65.5538 35.048C65.5538 34.8 65.5058 34.624 65.4098 34.52C65.3218 34.408 65.1738 34.352 64.9658 34.352C64.8058 34.352 64.6458 34.4 64.4858 34.496C64.3258 34.584 64.1698 34.72 64.0178 34.904C63.8658 35.08 63.7218 35.304 63.5858 35.576L63.3818 34.004H63.9458C64.0818 33.764 64.2298 33.564 64.3898 33.404C64.5498 33.244 64.7258 33.128 64.9178 33.056C65.1178 32.976 65.3418 32.936 65.5898 32.936C65.7898 32.936 65.9778 32.968 66.1538 33.032C66.3378 33.096 66.4978 33.2 66.6338 33.344C66.7778 33.48 66.8898 33.652 66.9698 33.86C67.0498 34.06 67.0898 34.304 67.0898 34.592C67.0898 34.816 67.0898 35.072 67.0898 35.36C67.0898 35.64 67.0898 35.944 67.0898 36.272C67.0898 36.592 67.0898 36.924 67.0898 37.268C67.0898 37.612 67.0898 37.956 67.0898 38.3C67.0898 38.5 67.0898 38.7 67.0898 38.9C67.0898 39.1 67.0898 39.3 67.0898 39.5ZM63.7418 39.5C63.6298 39.5 63.4818 39.5 63.2978 39.5C63.1138 39.5 62.9338 39.5 62.7578 39.5C62.5818 39.5 62.4418 39.5 62.3378 39.5C62.3138 39.5 62.2898 39.496 62.2658 39.488C62.2498 39.472 62.2338 39.456 62.2178 39.44C62.2098 39.424 62.2058 39.4 62.2058 39.368C62.2058 39.064 62.2058 38.76 62.2058 38.456C62.2058 38.152 62.2058 37.852 62.2058 37.556C62.2058 37.26 62.2058 36.968 62.2058 36.68C62.2058 36.384 62.2058 36.1 62.2058 35.828C62.2058 35.556 62.2058 35.292 62.2058 35.036C62.2058 34.868 62.1858 34.736 62.1458 34.64C62.1058 34.536 62.0458 34.464 61.9658 34.424C61.8938 34.376 61.7978 34.352 61.6778 34.352C61.5178 34.352 61.3538 34.4 61.1858 34.496C61.0258 34.584 60.8618 34.72 60.6938 34.904C60.5338 35.088 60.3778 35.32 60.2258 35.6L59.9738 34.004H60.5138C60.6658 33.78 60.8258 33.588 60.9938 33.428C61.1698 33.268 61.3578 33.148 61.5578 33.068C61.7578 32.98 61.9658 32.936 62.1818 32.936C62.4058 32.936 62.6098 32.968 62.7938 33.032C62.9858 33.096 63.1498 33.192 63.2858 33.32C63.4298 33.448 63.5418 33.612 63.6218 33.812C63.7018 34.012 63.7418 34.248 63.7418 34.52C63.7418 34.704 63.7418 34.948 63.7418 35.252C63.7418 35.556 63.7418 35.916 63.7418 36.332C63.7418 36.748 63.7418 37.22 63.7418 37.748C63.7418 38.276 63.7418 38.86 63.7418 39.5ZM60.3938 39.5C60.2898 39.5 60.1778 39.5 60.0578 39.5C59.9378 39.5 59.8138 39.5 59.6858 39.5C59.5578 39.5 59.4338 39.5 59.3138 39.5C59.1938 39.5 59.0858 39.5 58.9898 39.5C58.9658 39.5 58.9458 39.5 58.9298 39.5C58.9138 39.492 58.8978 39.484 58.8818 39.476C58.8738 39.46 58.8658 39.444 58.8578 39.428C58.8578 39.412 58.8578 39.392 58.8578 39.368C58.8578 38.8 58.8578 38.232 58.8578 37.664C58.8578 37.096 58.8578 36.532 58.8578 35.972C58.8578 35.404 58.8578 34.836 58.8578 34.268C58.8578 34.044 58.8578 33.832 58.8578 33.632C58.8578 33.424 58.8578 33.236 58.8578 33.068C58.9378 33.068 59.0258 33.068 59.1218 33.068C59.2258 33.068 59.3298 33.068 59.4338 33.068C59.5458 33.068 59.6498 33.068 59.7458 33.068C59.8498 33.068 59.9418 33.068 60.0218 33.068C60.0218 33.068 60.0378 33.136 60.0698 33.272C60.1098 33.408 60.1538 33.564 60.2018 33.74C60.2498 33.916 60.2938 34.072 60.3338 34.208C60.3738 34.344 60.3938 34.412 60.3938 34.412C60.3938 34.924 60.3938 35.46 60.3938 36.02C60.3938 36.58 60.3938 37.152 60.3938 37.736C60.3938 38.312 60.3938 38.9 60.3938 39.5ZM69.8811 39.368C69.8811 39.12 69.8811 38.832 69.8811 38.504C69.8811 38.168 69.8811 37.812 69.8811 37.436C69.8811 37.06 69.8811 36.684 69.8811 36.308C69.8811 35.932 69.8811 35.576 69.8811 35.24C69.8811 34.904 69.8811 34.616 69.8811 34.376H69.7731C69.7171 34.376 69.6571 34.376 69.5931 34.376C69.5291 34.376 69.4611 34.376 69.3891 34.376C69.3171 34.376 69.2451 34.376 69.1731 34.376C69.1011 34.376 69.0331 34.376 68.9691 34.376C68.9291 34.376 68.8971 34.364 68.8731 34.34C68.8491 34.308 68.8371 34.276 68.8371 34.244C68.8371 34.052 68.8371 33.856 68.8371 33.656C68.8371 33.456 68.8371 33.26 68.8371 33.068C68.9651 33.068 69.1131 33.068 69.2811 33.068C69.4491 33.068 69.6211 33.068 69.7971 33.068C69.9811 33.068 70.1571 33.068 70.3251 33.068C70.5011 33.068 70.6651 33.068 70.8171 33.068C70.9691 33.068 71.0971 33.068 71.2011 33.068C71.2331 33.068 71.2571 33.076 71.2731 33.092C71.2891 33.1 71.3011 33.112 71.3091 33.128C71.3251 33.144 71.3331 33.168 71.3331 33.2C71.3331 33.584 71.3331 33.996 71.3331 34.436C71.3331 34.876 71.3331 35.324 71.3331 35.78C71.3331 36.228 71.3331 36.672 71.3331 37.112C71.3331 37.544 71.3331 37.96 71.3331 38.36C71.3331 38.48 71.3331 38.604 71.3331 38.732C71.3331 38.86 71.3331 38.988 71.3331 39.116C71.3331 39.244 71.3331 39.372 71.3331 39.5C71.1011 39.5 70.8811 39.5 70.6731 39.5C70.4731 39.5 70.2531 39.5 70.0131 39.5C69.9731 39.5 69.9411 39.488 69.9171 39.464C69.8931 39.44 69.8811 39.408 69.8811 39.368ZM69.6171 30.056C69.7611 30.056 69.9051 30.056 70.0491 30.056C70.1931 30.056 70.3411 30.056 70.4931 30.056C70.6531 30.056 70.8051 30.056 70.9491 30.056C71.0931 30.056 71.2371 30.056 71.3811 30.056C71.4211 30.056 71.4531 30.068 71.4771 30.092C71.5011 30.116 71.5131 30.148 71.5131 30.188V31.604C71.3691 31.604 71.2251 31.604 71.0811 31.604C70.9371 31.604 70.7851 31.604 70.6251 31.604C70.4731 31.604 70.3251 31.604 70.1811 31.604C70.0371 31.604 69.8931 31.604 69.7491 31.604C69.7091 31.604 69.6771 31.592 69.6531 31.568C69.6291 31.544 69.6171 31.512 69.6171 31.472V30.056ZM73.8484 32.024C73.8484 31.736 73.8484 31.472 73.8484 31.232C73.8484 30.984 73.8484 30.74 73.8484 30.5C74.0404 30.5 74.1764 30.5 74.2564 30.5C74.3444 30.5 74.4084 30.5 74.4484 30.5C74.4884 30.5 74.5244 30.5 74.5564 30.5C74.5964 30.5 74.6604 30.5 74.7484 30.5C74.8364 30.5 74.9764 30.5 75.1684 30.5C75.1924 30.5 75.2124 30.508 75.2284 30.524C75.2524 30.532 75.2684 30.544 75.2764 30.56C75.2924 30.576 75.3004 30.6 75.3004 30.632C75.3004 31.104 75.3004 31.572 75.3004 32.036C75.3004 32.5 75.3004 32.964 75.3004 33.428C75.3004 33.884 75.3004 34.344 75.3004 34.808C75.3004 35.272 75.3004 35.736 75.3004 36.2C75.3004 36.664 75.3004 37.128 75.3004 37.592C75.3004 37.688 75.3044 37.772 75.3124 37.844C75.3284 37.908 75.3604 37.96 75.4084 38C75.4564 38.048 75.5124 38.084 75.5764 38.108C75.6484 38.124 75.7364 38.132 75.8404 38.132C75.8724 38.132 75.9124 38.132 75.9604 38.132C76.0084 38.132 76.0524 38.132 76.0924 38.132C76.1404 38.132 76.1844 38.132 76.2244 38.132C76.2724 38.132 76.3044 38.132 76.3204 38.132H76.4404C76.4404 38.324 76.4404 38.532 76.4404 38.756C76.4404 38.972 76.4404 39.176 76.4404 39.368C76.4404 39.408 76.4284 39.44 76.4044 39.464C76.3804 39.488 76.3484 39.5 76.3084 39.5C76.2764 39.5 76.2444 39.5 76.2124 39.5C76.1884 39.5 76.1484 39.5 76.0924 39.5C76.0444 39.5 75.9724 39.5 75.8764 39.5C75.7804 39.5 75.6444 39.5 75.4684 39.5C75.1964 39.5 74.9604 39.464 74.7604 39.392C74.5604 39.32 74.3924 39.212 74.2564 39.068C74.1204 38.916 74.0164 38.728 73.9444 38.504C73.8804 38.28 73.8484 38.016 73.8484 37.712C73.8484 37.24 73.8484 36.768 73.8484 36.296C73.8484 35.816 73.8484 35.34 73.8484 34.868C73.8484 34.396 73.8484 33.924 73.8484 33.452C73.8484 32.972 73.8484 32.496 73.8484 32.024ZM85.0734 39.74C84.5214 39.74 84.0334 39.664 83.6094 39.512C83.1854 39.368 82.8294 39.16 82.5414 38.888C82.2614 38.608 82.0494 38.268 81.9054 37.868C81.7694 37.46 81.7014 36.996 81.7014 36.476V34.028C81.7014 33.548 81.7734 33.116 81.9174 32.732C82.0614 32.348 82.2734 32.016 82.5534 31.736C82.8334 31.448 83.1734 31.232 83.5734 31.088C83.9814 30.936 84.4454 30.86 84.9654 30.86C85.3734 30.86 85.7334 30.9 86.0454 30.98C86.3654 31.052 86.6374 31.148 86.8614 31.268C87.0934 31.38 87.2734 31.504 87.4014 31.64C87.4254 31.656 87.4374 31.676 87.4374 31.7C87.4454 31.716 87.4494 31.736 87.4494 31.76C87.4574 31.776 87.4614 31.8 87.4614 31.832C87.4614 32.12 87.4614 32.448 87.4614 32.816C87.4614 33.176 87.4614 33.524 87.4614 33.86C87.2614 33.86 87.0574 33.86 86.8494 33.86C86.6414 33.86 86.4374 33.86 86.2374 33.86C86.1974 33.86 86.1654 33.848 86.1414 33.824C86.1174 33.8 86.1054 33.768 86.1054 33.728C86.1054 33.576 86.1054 33.424 86.1054 33.272C86.1054 33.112 86.1054 32.94 86.1054 32.756C86.1054 32.572 86.1054 32.364 86.1054 32.132L86.4174 32.648C86.2014 32.496 85.9774 32.392 85.7454 32.336C85.5134 32.272 85.2454 32.24 84.9414 32.24C84.5974 32.24 84.2974 32.308 84.0414 32.444C83.7854 32.572 83.5894 32.772 83.4534 33.044C83.3174 33.308 83.2494 33.648 83.2494 34.064V36.356C83.2494 36.724 83.2854 37.04 83.3574 37.304C83.4374 37.568 83.5614 37.784 83.7294 37.952C83.8894 38.112 84.0854 38.224 84.3174 38.288C84.5494 38.352 84.8054 38.384 85.0854 38.384C85.5334 38.384 85.9254 38.332 86.2614 38.228C86.5974 38.116 86.9494 37.936 87.3174 37.688H87.5214C87.5214 37.792 87.5214 37.892 87.5214 37.988C87.5214 38.084 87.5214 38.18 87.5214 38.276C87.5214 38.372 87.5214 38.472 87.5214 38.576C87.5214 38.672 87.5214 38.768 87.5214 38.864C87.5214 38.904 87.5174 38.94 87.5094 38.972C87.5014 38.996 87.4854 39.02 87.4614 39.044C87.3334 39.172 87.1534 39.288 86.9214 39.392C86.6894 39.496 86.4134 39.58 86.0934 39.644C85.7814 39.708 85.4414 39.74 85.0734 39.74ZM92.0527 32.936C92.4767 32.936 92.8607 33.004 93.2047 33.14C93.5567 33.268 93.8567 33.452 94.1047 33.692C94.3607 33.932 94.5567 34.216 94.6927 34.544C94.8367 34.872 94.9087 35.236 94.9087 35.636V36.896C94.9087 37.44 94.7847 37.92 94.5367 38.336C94.2967 38.744 93.9607 39.064 93.5287 39.296C93.1047 39.52 92.6127 39.632 92.0527 39.632C91.6287 39.632 91.2407 39.568 90.8887 39.44C90.5367 39.304 90.2367 39.116 89.9887 38.876C89.7407 38.636 89.5447 38.352 89.4007 38.024C89.2647 37.696 89.1967 37.332 89.1967 36.932V35.672C89.1967 35.128 89.3167 34.652 89.5567 34.244C89.8047 33.836 90.1447 33.516 90.5767 33.284C91.0087 33.052 91.5007 32.936 92.0527 32.936ZM92.0887 34.244C91.7767 34.244 91.5127 34.308 91.2967 34.436C91.0887 34.556 90.9287 34.728 90.8167 34.952C90.7047 35.168 90.6487 35.428 90.6487 35.732V36.848C90.6487 37.08 90.6807 37.292 90.7447 37.484C90.8167 37.668 90.9167 37.824 91.0447 37.952C91.1567 38.072 91.2967 38.164 91.4647 38.228C91.6327 38.292 91.8167 38.324 92.0167 38.324C92.3287 38.324 92.5887 38.264 92.7967 38.144C93.0127 38.016 93.1767 37.84 93.2887 37.616C93.4007 37.392 93.4567 37.132 93.4567 36.836V35.72C93.4567 35.464 93.4247 35.244 93.3607 35.06C93.2967 34.876 93.2047 34.72 93.0847 34.592C92.9647 34.48 92.8207 34.396 92.6527 34.34C92.4927 34.276 92.3047 34.244 92.0887 34.244ZM105.104 39.5C104.976 39.5 104.824 39.5 104.648 39.5C104.472 39.5 104.3 39.5 104.132 39.5C103.964 39.5 103.82 39.5 103.7 39.5C103.676 39.5 103.652 39.496 103.628 39.488C103.612 39.472 103.596 39.456 103.58 39.44C103.572 39.424 103.568 39.4 103.568 39.368C103.568 39.064 103.568 38.76 103.568 38.456C103.568 38.152 103.568 37.852 103.568 37.556C103.568 37.26 103.568 36.968 103.568 36.68C103.568 36.392 103.568 36.112 103.568 35.84C103.568 35.568 103.568 35.304 103.568 35.048C103.568 34.8 103.52 34.624 103.424 34.52C103.336 34.408 103.188 34.352 102.98 34.352C102.82 34.352 102.66 34.4 102.5 34.496C102.34 34.584 102.184 34.72 102.032 34.904C101.88 35.08 101.736 35.304 101.6 35.576L101.396 34.004H101.96C102.096 33.764 102.244 33.564 102.404 33.404C102.564 33.244 102.74 33.128 102.932 33.056C103.132 32.976 103.356 32.936 103.604 32.936C103.804 32.936 103.992 32.968 104.168 33.032C104.352 33.096 104.512 33.2 104.648 33.344C104.792 33.48 104.904 33.652 104.984 33.86C105.064 34.06 105.104 34.304 105.104 34.592C105.104 34.816 105.104 35.072 105.104 35.36C105.104 35.64 105.104 35.944 105.104 36.272C105.104 36.592 105.104 36.924 105.104 37.268C105.104 37.612 105.104 37.956 105.104 38.3C105.104 38.5 105.104 38.7 105.104 38.9C105.104 39.1 105.104 39.3 105.104 39.5ZM101.756 39.5C101.644 39.5 101.496 39.5 101.312 39.5C101.128 39.5 100.948 39.5 100.772 39.5C100.596 39.5 100.456 39.5 100.352 39.5C100.328 39.5 100.304 39.496 100.28 39.488C100.264 39.472 100.248 39.456 100.232 39.44C100.224 39.424 100.22 39.4 100.22 39.368C100.22 39.064 100.22 38.76 100.22 38.456C100.22 38.152 100.22 37.852 100.22 37.556C100.22 37.26 100.22 36.968 100.22 36.68C100.22 36.384 100.22 36.1 100.22 35.828C100.22 35.556 100.22 35.292 100.22 35.036C100.22 34.868 100.2 34.736 100.16 34.64C100.12 34.536 100.06 34.464 99.98 34.424C99.908 34.376 99.812 34.352 99.692 34.352C99.532 34.352 99.368 34.4 99.2 34.496C99.04 34.584 98.876 34.72 98.708 34.904C98.548 35.088 98.392 35.32 98.24 35.6L97.988 34.004H98.528C98.68 33.78 98.84 33.588 99.008 33.428C99.184 33.268 99.372 33.148 99.572 33.068C99.772 32.98 99.98 32.936 100.196 32.936C100.42 32.936 100.624 32.968 100.808 33.032C101 33.096 101.164 33.192 101.3 33.32C101.444 33.448 101.556 33.612 101.636 33.812C101.716 34.012 101.756 34.248 101.756 34.52C101.756 34.704 101.756 34.948 101.756 35.252C101.756 35.556 101.756 35.916 101.756 36.332C101.756 36.748 101.756 37.22 101.756 37.748C101.756 38.276 101.756 38.86 101.756 39.5ZM98.408 39.5C98.304 39.5 98.192 39.5 98.072 39.5C97.952 39.5 97.828 39.5 97.7 39.5C97.572 39.5 97.448 39.5 97.328 39.5C97.208 39.5 97.1 39.5 97.004 39.5C96.98 39.5 96.96 39.5 96.944 39.5C96.928 39.492 96.912 39.484 96.896 39.476C96.888 39.46 96.88 39.444 96.872 39.428C96.872 39.412 96.872 39.392 96.872 39.368C96.872 38.8 96.872 38.232 96.872 37.664C96.872 37.096 96.872 36.532 96.872 35.972C96.872 35.404 96.872 34.836 96.872 34.268C96.872 34.044 96.872 33.832 96.872 33.632C96.872 33.424 96.872 33.236 96.872 33.068C96.952 33.068 97.04 33.068 97.136 33.068C97.24 33.068 97.344 33.068 97.448 33.068C97.56 33.068 97.664 33.068 97.76 33.068C97.864 33.068 97.956 33.068 98.036 33.068C98.036 33.068 98.052 33.136 98.084 33.272C98.124 33.408 98.168 33.564 98.216 33.74C98.264 33.916 98.308 34.072 98.348 34.208C98.388 34.344 98.408 34.412 98.408 34.412C98.408 34.924 98.408 35.46 98.408 36.02C98.408 36.58 98.408 37.152 98.408 37.736C98.408 38.312 98.408 38.9 98.408 39.5ZM107.307 33.068C107.459 33.068 107.607 33.068 107.751 33.068C107.895 33.068 108.039 33.068 108.183 33.068C108.327 33.068 108.471 33.068 108.615 33.068C108.647 33.068 108.671 33.076 108.687 33.092C108.703 33.1 108.715 33.112 108.723 33.128C108.739 33.144 108.747 33.168 108.747 33.2C108.747 33.92 108.747 34.644 108.747 35.372C108.747 36.1 108.747 36.828 108.747 37.556C108.747 38.276 108.747 39 108.747 39.728C108.747 40.456 108.747 41.18 108.747 41.9C108.603 41.9 108.459 41.9 108.315 41.9C108.171 41.9 108.027 41.9 107.883 41.9C107.739 41.9 107.591 41.9 107.439 41.9C107.415 41.9 107.391 41.892 107.367 41.876C107.351 41.868 107.335 41.852 107.319 41.828C107.311 41.812 107.307 41.792 107.307 41.768C107.307 41.144 107.307 40.52 107.307 39.896C107.307 39.272 107.307 38.648 107.307 38.024C107.307 37.4 107.307 36.776 107.307 36.152C107.307 35.528 107.307 34.904 107.307 34.28C107.307 34.064 107.307 33.856 107.307 33.656C107.307 33.448 107.307 33.252 107.307 33.068ZM110.775 32.936C111.175 32.936 111.527 33.028 111.831 33.212C112.135 33.396 112.371 33.664 112.539 34.016C112.707 34.368 112.791 34.784 112.791 35.264V37.244C112.791 37.62 112.743 37.956 112.647 38.252C112.551 38.54 112.415 38.788 112.239 38.996C112.063 39.196 111.847 39.352 111.591 39.464C111.343 39.568 111.063 39.62 110.751 39.62C110.511 39.62 110.279 39.58 110.055 39.5C109.839 39.42 109.635 39.308 109.443 39.164C109.259 39.02 109.095 38.848 108.951 38.648H108.603V37.4C108.827 37.68 109.087 37.888 109.383 38.024C109.687 38.16 109.995 38.228 110.307 38.228C110.523 38.228 110.707 38.184 110.859 38.096C111.011 38 111.127 37.86 111.207 37.676C111.295 37.492 111.339 37.272 111.339 37.016V35.504C111.339 35.296 111.315 35.116 111.267 34.964C111.219 34.812 111.147 34.688 111.051 34.592C110.963 34.504 110.855 34.44 110.727 34.4C110.607 34.352 110.467 34.328 110.307 34.328C110.115 34.328 109.919 34.372 109.719 34.46C109.519 34.548 109.323 34.68 109.131 34.856C108.947 35.024 108.771 35.236 108.603 35.492V34.064H108.951C109.079 33.824 109.235 33.62 109.419 33.452C109.611 33.284 109.819 33.156 110.043 33.068C110.275 32.98 110.519 32.936 110.775 32.936ZM116.051 33.068C116.083 33.068 116.107 33.076 116.123 33.092C116.139 33.1 116.151 33.112 116.159 33.128C116.175 33.144 116.183 33.168 116.183 33.2C116.183 33.56 116.183 33.928 116.183 34.304C116.183 34.672 116.183 35.04 116.183 35.408C116.183 35.768 116.183 36.124 116.183 36.476C116.183 36.828 116.183 37.168 116.183 37.496C116.183 37.712 116.239 37.88 116.351 38C116.471 38.112 116.627 38.168 116.819 38.168C117.003 38.168 117.179 38.148 117.347 38.108C117.523 38.068 117.687 38.008 117.839 37.928C117.991 37.84 118.143 37.732 118.295 37.604C118.447 37.468 118.595 37.308 118.739 37.124V38.456H118.343C118.183 38.696 118.011 38.908 117.827 39.092C117.643 39.268 117.435 39.404 117.203 39.5C116.979 39.588 116.719 39.632 116.423 39.632C116.175 39.632 115.943 39.588 115.727 39.5C115.519 39.42 115.343 39.3 115.199 39.14C115.055 38.98 114.939 38.792 114.851 38.576C114.771 38.36 114.731 38.116 114.731 37.844C114.731 37.484 114.731 37.124 114.731 36.764C114.731 36.404 114.731 36.044 114.731 35.684C114.731 35.324 114.731 34.968 114.731 34.616C114.731 34.36 114.731 34.104 114.731 33.848C114.731 33.584 114.731 33.324 114.731 33.068C114.955 33.068 115.175 33.068 115.391 33.068C115.615 33.068 115.835 33.068 116.051 33.068ZM119.855 33.068C119.887 33.068 119.911 33.076 119.927 33.092C119.943 33.1 119.955 33.112 119.963 33.128C119.979 33.144 119.987 33.168 119.987 33.2C119.987 33.768 119.987 34.336 119.987 34.904C119.987 35.472 119.987 36.044 119.987 36.62C119.987 37.188 119.987 37.752 119.987 38.312C119.987 38.472 119.987 38.624 119.987 38.768C119.987 38.912 119.987 39.048 119.987 39.176C119.987 39.296 119.987 39.404 119.987 39.5C119.835 39.5 119.683 39.5 119.531 39.5C119.379 39.5 119.231 39.5 119.087 39.5C118.951 39.5 118.815 39.5 118.679 39.5C118.655 39.5 118.631 39.496 118.607 39.488C118.591 39.472 118.575 39.456 118.559 39.44C118.551 39.424 118.547 39.4 118.547 39.368C118.547 38.664 118.547 37.964 118.547 37.268C118.547 36.564 118.547 35.864 118.547 35.168C118.547 34.464 118.547 33.764 118.547 33.068C118.699 33.068 118.847 33.068 118.991 33.068C119.135 33.068 119.279 33.068 119.423 33.068C119.567 33.068 119.711 33.068 119.855 33.068ZM121.71 33.068H126.306C126.346 33.068 126.378 33.08 126.402 33.104C126.426 33.128 126.438 33.16 126.438 33.2C126.438 33.344 126.438 33.484 126.438 33.62C126.438 33.748 126.438 33.88 126.438 34.016C126.438 34.144 126.438 34.28 126.438 34.424H121.842C121.826 34.424 121.81 34.42 121.794 34.412C121.778 34.404 121.762 34.396 121.746 34.388C121.738 34.372 121.73 34.356 121.722 34.34C121.714 34.324 121.71 34.308 121.71 34.292C121.71 34.148 121.71 34.012 121.71 33.884C121.71 33.748 121.71 33.616 121.71 33.488C121.71 33.352 121.71 33.212 121.71 33.068ZM126.438 38.12C126.438 38.328 126.438 38.536 126.438 38.744C126.438 38.952 126.438 39.16 126.438 39.368C126.438 39.408 126.426 39.44 126.402 39.464C126.378 39.488 126.346 39.5 126.306 39.5C126.226 39.5 126.146 39.5 126.066 39.5C125.986 39.5 125.906 39.5 125.826 39.5C125.746 39.5 125.666 39.5 125.586 39.5C125.506 39.5 125.426 39.5 125.346 39.5C124.938 39.5 124.574 39.452 124.254 39.356C123.934 39.252 123.662 39.1 123.438 38.9C123.222 38.7 123.054 38.44 122.934 38.12C122.822 37.792 122.766 37.408 122.766 36.968C122.766 36.584 122.766 36.2 122.766 35.816C122.766 35.424 122.766 35.036 122.766 34.652C122.766 34.26 122.766 33.872 122.766 33.488C122.766 33.096 122.766 32.704 122.766 32.312C122.766 32.112 122.766 31.912 122.766 31.712C122.766 31.512 122.766 31.308 122.766 31.1C122.99 31.1 123.21 31.1 123.426 31.1C123.65 31.1 123.87 31.1 124.086 31.1C124.11 31.1 124.13 31.108 124.146 31.124C124.17 31.132 124.186 31.148 124.194 31.172C124.21 31.188 124.218 31.208 124.218 31.232C124.218 31.704 124.218 32.172 124.218 32.636C124.218 33.1 124.218 33.568 124.218 34.04C124.218 34.512 124.218 34.98 124.218 35.444C124.218 35.908 124.218 36.376 124.218 36.848C124.218 37.104 124.242 37.316 124.29 37.484C124.338 37.644 124.418 37.776 124.53 37.88C124.618 37.968 124.734 38.032 124.878 38.072C125.022 38.104 125.194 38.12 125.394 38.12C125.498 38.12 125.598 38.12 125.694 38.12C125.798 38.12 125.898 38.12 125.994 38.12C126.098 38.12 126.198 38.12 126.294 38.12H126.438ZM128.772 39.368C128.772 39.12 128.772 38.832 128.772 38.504C128.772 38.168 128.772 37.812 128.772 37.436C128.772 37.06 128.772 36.684 128.772 36.308C128.772 35.932 128.772 35.576 128.772 35.24C128.772 34.904 128.772 34.616 128.772 34.376H128.664C128.608 34.376 128.548 34.376 128.484 34.376C128.42 34.376 128.352 34.376 128.28 34.376C128.208 34.376 128.136 34.376 128.064 34.376C127.992 34.376 127.924 34.376 127.86 34.376C127.82 34.376 127.788 34.364 127.764 34.34C127.74 34.308 127.728 34.276 127.728 34.244C127.728 34.052 127.728 33.856 127.728 33.656C127.728 33.456 127.728 33.26 127.728 33.068C127.856 33.068 128.004 33.068 128.172 33.068C128.34 33.068 128.512 33.068 128.688 33.068C128.872 33.068 129.048 33.068 129.216 33.068C129.392 33.068 129.556 33.068 129.708 33.068C129.86 33.068 129.988 33.068 130.092 33.068C130.124 33.068 130.148 33.076 130.164 33.092C130.18 33.1 130.192 33.112 130.2 33.128C130.216 33.144 130.224 33.168 130.224 33.2C130.224 33.584 130.224 33.996 130.224 34.436C130.224 34.876 130.224 35.324 130.224 35.78C130.224 36.228 130.224 36.672 130.224 37.112C130.224 37.544 130.224 37.96 130.224 38.36C130.224 38.48 130.224 38.604 130.224 38.732C130.224 38.86 130.224 38.988 130.224 39.116C130.224 39.244 130.224 39.372 130.224 39.5C129.992 39.5 129.772 39.5 129.564 39.5C129.364 39.5 129.144 39.5 128.904 39.5C128.864 39.5 128.832 39.488 128.808 39.464C128.784 39.44 128.772 39.408 128.772 39.368ZM128.508 30.056C128.652 30.056 128.796 30.056 128.94 30.056C129.084 30.056 129.232 30.056 129.384 30.056C129.544 30.056 129.696 30.056 129.84 30.056C129.984 30.056 130.128 30.056 130.272 30.056C130.312 30.056 130.344 30.068 130.368 30.092C130.392 30.116 130.404 30.148 130.404 30.188V31.604C130.26 31.604 130.116 31.604 129.972 31.604C129.828 31.604 129.676 31.604 129.516 31.604C129.364 31.604 129.216 31.604 129.072 31.604C128.928 31.604 128.784 31.604 128.64 31.604C128.6 31.604 128.568 31.592 128.544 31.568C128.52 31.544 128.508 31.512 128.508 31.472V30.056ZM137.959 39.5C137.727 39.5 137.507 39.5 137.299 39.5C137.099 39.5 136.879 39.5 136.639 39.5C136.615 39.5 136.591 39.496 136.567 39.488C136.551 39.472 136.535 39.456 136.519 39.44C136.511 39.424 136.507 39.4 136.507 39.368C136.507 38.888 136.507 38.412 136.507 37.94C136.507 37.46 136.507 36.98 136.507 36.5C136.507 36.02 136.507 35.544 136.507 35.072C136.507 34.816 136.447 34.628 136.327 34.508C136.215 34.388 136.039 34.328 135.799 34.328C135.655 34.328 135.499 34.352 135.331 34.4C135.171 34.44 135.003 34.508 134.827 34.604C134.659 34.7 134.495 34.816 134.335 34.952C134.175 35.088 134.023 35.252 133.879 35.444V34.124H134.275C134.443 33.884 134.627 33.676 134.827 33.5C135.035 33.324 135.259 33.188 135.499 33.092C135.739 32.988 135.995 32.936 136.267 32.936C136.531 32.936 136.767 32.98 136.975 33.068C137.183 33.148 137.359 33.272 137.503 33.44C137.647 33.6 137.759 33.792 137.839 34.016C137.919 34.24 137.959 34.492 137.959 34.772C137.959 35.156 137.959 35.544 137.959 35.936C137.959 36.328 137.959 36.72 137.959 37.112C137.959 37.504 137.959 37.896 137.959 38.288C137.959 38.496 137.959 38.7 137.959 38.9C137.959 39.1 137.959 39.3 137.959 39.5ZM134.059 39.5C133.907 39.5 133.759 39.5 133.615 39.5C133.479 39.5 133.339 39.5 133.195 39.5C133.051 39.5 132.903 39.5 132.751 39.5C132.727 39.5 132.707 39.5 132.691 39.5C132.675 39.492 132.659 39.484 132.643 39.476C132.635 39.46 132.627 39.444 132.619 39.428C132.619 39.412 132.619 39.392 132.619 39.368C132.619 38.936 132.619 38.508 132.619 38.084C132.619 37.66 132.619 37.236 132.619 36.812C132.619 36.388 132.619 35.964 132.619 35.54C132.619 35.108 132.619 34.68 132.619 34.256C132.619 34.016 132.619 33.796 132.619 33.596C132.619 33.388 132.619 33.212 132.619 33.068C132.795 33.068 132.955 33.068 133.099 33.068C133.243 33.068 133.383 33.068 133.519 33.068C133.655 33.068 133.791 33.068 133.927 33.068C133.959 33.068 133.983 33.076 133.999 33.092C134.015 33.1 134.027 33.112 134.035 33.128C134.051 33.144 134.059 33.168 134.059 33.2C134.059 33.896 134.059 34.596 134.059 35.3C134.059 35.996 134.059 36.696 134.059 37.4C134.059 38.096 134.059 38.796 134.059 39.5ZM140.318 38.54C140.318 38.364 140.35 38.204 140.414 38.06C140.478 37.916 140.574 37.788 140.702 37.676C140.838 37.564 141.006 37.476 141.206 37.412V37.052L141.926 37.316C141.87 37.444 141.83 37.576 141.806 37.712C141.782 37.84 141.77 37.976 141.77 38.12C141.77 38.232 141.794 38.312 141.842 38.36C141.898 38.408 141.978 38.432 142.082 38.432H143.702C144.166 38.432 144.546 38.512 144.842 38.672C145.146 38.824 145.37 39.04 145.514 39.32C145.666 39.6 145.742 39.92 145.742 40.28V40.688C145.742 40.96 145.698 41.204 145.61 41.42C145.522 41.644 145.39 41.836 145.214 41.996C145.046 42.156 144.83 42.28 144.566 42.368C144.31 42.456 144.006 42.5 143.654 42.5H141.278C140.862 42.5 140.514 42.444 140.234 42.332C139.962 42.22 139.754 42.056 139.61 41.84C139.474 41.632 139.406 41.376 139.406 41.072V40.856C139.406 40.616 139.454 40.4 139.55 40.208C139.654 40.024 139.794 39.868 139.97 39.74C140.154 39.62 140.374 39.54 140.63 39.5V39.08L141.47 39.608C141.31 39.64 141.182 39.696 141.086 39.776C140.998 39.864 140.934 39.96 140.894 40.064C140.854 40.176 140.834 40.3 140.834 40.436V40.772C140.834 40.916 140.858 41.036 140.906 41.132C140.954 41.236 141.034 41.312 141.146 41.36C141.258 41.416 141.406 41.444 141.59 41.444H143.546C143.682 41.444 143.798 41.424 143.894 41.384C143.99 41.344 144.07 41.296 144.134 41.24C144.198 41.176 144.242 41.096 144.266 41C144.298 40.904 144.314 40.8 144.314 40.688V40.376C144.314 40.136 144.254 39.956 144.134 39.836C144.022 39.724 143.826 39.668 143.546 39.668H141.422C141.23 39.668 141.05 39.62 140.882 39.524C140.714 39.428 140.578 39.292 140.474 39.116C140.37 38.94 140.318 38.748 140.318 38.54ZM143.15 34.124L144.242 34.052V34.364C144.522 34.46 144.722 34.6 144.842 34.784C144.97 34.968 145.034 35.192 145.034 35.456V35.672C145.034 36.024 144.934 36.332 144.734 36.596C144.534 36.852 144.238 37.052 143.846 37.196C143.462 37.332 142.978 37.4 142.394 37.4C141.818 37.4 141.33 37.32 140.93 37.16C140.53 36.992 140.222 36.756 140.006 36.452C139.798 36.148 139.694 35.78 139.694 35.348V35.084C139.694 34.644 139.798 34.268 140.006 33.956C140.222 33.636 140.53 33.392 140.93 33.224C141.33 33.056 141.818 32.972 142.394 32.972C142.938 32.972 143.482 32.972 144.026 32.972C144.578 32.972 145.126 32.972 145.67 32.972C145.67 33.148 145.67 33.328 145.67 33.512C145.67 33.696 145.67 33.88 145.67 34.064C145.67 34.096 145.658 34.128 145.634 34.16C145.61 34.184 145.578 34.196 145.538 34.196C145.194 34.196 144.854 34.196 144.518 34.196C144.182 34.196 143.842 34.196 143.498 34.196C143.154 34.196 142.786 34.196 142.394 34.196C141.986 34.196 141.67 34.276 141.446 34.436C141.222 34.588 141.11 34.82 141.11 35.132V35.36C141.11 35.488 141.13 35.6 141.17 35.696C141.21 35.792 141.266 35.88 141.338 35.96C141.45 36.064 141.59 36.144 141.758 36.2C141.934 36.256 142.146 36.284 142.394 36.284C142.81 36.284 143.118 36.204 143.318 36.044C143.526 35.876 143.63 35.64 143.63 35.336V35.06C143.63 34.932 143.614 34.816 143.582 34.712C143.558 34.608 143.51 34.508 143.438 34.412C143.374 34.316 143.278 34.22 143.15 34.124ZM154.999 35.636C155.215 36.028 155.415 36.396 155.599 36.74C155.791 37.084 155.991 37.452 156.199 37.844C156.279 37.972 156.351 38.064 156.415 38.12C156.487 38.168 156.575 38.192 156.679 38.192C156.719 38.192 156.751 38.192 156.775 38.192C156.799 38.192 156.827 38.192 156.859 38.192H157.063C157.063 38.408 157.063 38.604 157.063 38.78C157.063 38.956 157.063 39.152 157.063 39.368C157.063 39.408 157.051 39.44 157.027 39.464C157.003 39.488 156.971 39.5 156.931 39.5C156.875 39.5 156.803 39.5 156.715 39.5C156.627 39.5 156.547 39.5 156.475 39.5C156.219 39.5 156.003 39.476 155.827 39.428C155.651 39.38 155.495 39.3 155.359 39.188C155.231 39.068 155.111 38.9 154.999 38.684C154.791 38.268 154.579 37.856 154.363 37.448C154.155 37.032 153.943 36.616 153.727 36.2L154.999 35.636ZM150.703 31.1C151.255 31.1 151.811 31.1 152.371 31.1C152.931 31.1 153.487 31.1 154.039 31.1C154.503 31.1 154.903 31.156 155.239 31.268C155.575 31.38 155.851 31.544 156.067 31.76C156.283 31.968 156.439 32.224 156.535 32.528C156.639 32.824 156.691 33.156 156.691 33.524V34.172C156.691 34.532 156.635 34.856 156.523 35.144C156.411 35.432 156.251 35.676 156.043 35.876C155.835 36.076 155.579 36.228 155.275 36.332C154.971 36.436 154.631 36.488 154.255 36.488C153.991 36.488 153.727 36.488 153.463 36.488C153.199 36.488 152.939 36.488 152.683 36.488L152.551 36.572V35.228C152.807 35.228 153.063 35.228 153.319 35.228C153.575 35.228 153.827 35.228 154.075 35.228C154.331 35.228 154.539 35.188 154.699 35.108C154.867 35.028 154.991 34.912 155.071 34.76C155.151 34.6 155.191 34.404 155.191 34.172V33.464C155.191 33.296 155.171 33.148 155.131 33.02C155.091 32.884 155.027 32.772 154.939 32.684C154.851 32.596 154.735 32.528 154.591 32.48C154.455 32.432 154.283 32.408 154.075 32.408C153.723 32.408 153.363 32.408 152.995 32.408C152.635 32.408 152.275 32.408 151.915 32.408C151.555 32.408 151.195 32.408 150.835 32.408C150.795 32.408 150.763 32.396 150.739 32.372C150.715 32.348 150.703 32.316 150.703 32.276C150.703 32.068 150.703 31.872 150.703 31.688C150.703 31.504 150.703 31.308 150.703 31.1ZM152.827 39.5C152.595 39.5 152.367 39.5 152.143 39.5C151.927 39.5 151.699 39.5 151.459 39.5C151.419 39.5 151.387 39.488 151.363 39.464C151.339 39.44 151.327 39.408 151.327 39.368C151.327 38.72 151.327 38.088 151.327 37.472C151.327 36.856 151.327 36.244 151.327 35.636C151.327 35.02 151.327 34.404 151.327 33.788C151.327 33.164 151.327 32.528 151.327 31.88H152.971L152.827 32.18C152.827 32.476 152.827 32.772 152.827 33.068C152.827 33.356 152.827 33.644 152.827 33.932C152.827 34.42 152.827 34.9 152.827 35.372C152.827 35.844 152.827 36.32 152.827 36.8C152.827 37.28 152.827 37.784 152.827 38.312C152.827 38.528 152.827 38.736 152.827 38.936C152.827 39.136 152.827 39.324 152.827 39.5ZM161.285 32.936C161.813 32.936 162.277 33.044 162.677 33.26C163.077 33.468 163.389 33.772 163.613 34.172C163.837 34.564 163.949 35.044 163.949 35.612V36.572C163.949 36.596 163.945 36.62 163.937 36.644C163.929 36.66 163.913 36.672 163.889 36.68C163.873 36.688 163.853 36.692 163.829 36.692H160.949C160.821 36.692 160.685 36.692 160.541 36.692C160.405 36.692 160.269 36.692 160.133 36.692H159.689L159.605 35.768H162.545C162.545 35.728 162.545 35.696 162.545 35.672C162.545 35.64 162.545 35.604 162.545 35.564C162.545 35.308 162.517 35.088 162.461 34.904C162.405 34.72 162.321 34.572 162.209 34.46C162.105 34.356 161.977 34.28 161.825 34.232C161.673 34.184 161.493 34.16 161.285 34.16C160.853 34.16 160.525 34.272 160.301 34.496C160.077 34.712 159.965 35.076 159.965 35.588V36.968C159.965 37.12 159.977 37.26 160.001 37.388C160.025 37.508 160.061 37.616 160.109 37.712C160.157 37.808 160.217 37.892 160.289 37.964C160.433 38.108 160.617 38.212 160.841 38.276C161.065 38.34 161.329 38.372 161.633 38.372C161.921 38.372 162.177 38.356 162.401 38.324C162.625 38.292 162.833 38.248 163.025 38.192C163.225 38.128 163.417 38.056 163.601 37.976H163.817C163.817 38.16 163.817 38.348 163.817 38.54C163.817 38.724 163.817 38.904 163.817 39.08C163.817 39.096 163.813 39.112 163.805 39.128C163.797 39.144 163.785 39.16 163.769 39.176C163.697 39.256 163.549 39.332 163.325 39.404C163.101 39.468 162.837 39.52 162.533 39.56C162.237 39.608 161.933 39.632 161.621 39.632C161.109 39.632 160.657 39.572 160.265 39.452C159.873 39.332 159.549 39.156 159.293 38.924C159.037 38.692 158.841 38.412 158.705 38.084C158.577 37.756 158.513 37.384 158.513 36.968V35.636C158.513 35.204 158.577 34.824 158.705 34.496C158.841 34.16 159.033 33.876 159.281 33.644C159.537 33.412 159.833 33.236 160.169 33.116C160.513 32.996 160.885 32.936 161.285 32.936ZM168.301 38.216C168.821 38.216 169.181 38.152 169.381 38.024C169.581 37.896 169.681 37.74 169.681 37.556C169.681 37.452 169.653 37.36 169.597 37.28C169.549 37.192 169.461 37.12 169.333 37.064C169.213 37 169.045 36.948 168.829 36.908L167.617 36.704C167.225 36.632 166.901 36.52 166.645 36.368C166.397 36.216 166.213 36.028 166.093 35.804C165.973 35.572 165.913 35.308 165.913 35.012C165.913 34.692 165.977 34.408 166.105 34.16C166.233 33.904 166.421 33.688 166.669 33.512C166.917 33.328 167.221 33.192 167.581 33.104C167.949 33.008 168.365 32.96 168.829 32.96C169.101 32.96 169.345 32.972 169.561 32.996C169.785 33.012 169.981 33.04 170.149 33.08C170.325 33.112 170.477 33.148 170.605 33.188C170.653 33.204 170.689 33.224 170.713 33.248C170.737 33.264 170.753 33.288 170.761 33.32C170.769 33.352 170.773 33.392 170.773 33.44C170.773 33.6 170.773 33.792 170.773 34.016C170.773 34.232 170.773 34.436 170.773 34.628H170.557C170.357 34.556 170.157 34.5 169.957 34.46C169.765 34.42 169.565 34.392 169.357 34.376C169.149 34.36 168.921 34.352 168.673 34.352C168.345 34.352 168.081 34.38 167.881 34.436C167.689 34.484 167.553 34.556 167.473 34.652C167.393 34.74 167.353 34.844 167.353 34.964C167.353 35.068 167.373 35.156 167.413 35.228C167.461 35.3 167.545 35.36 167.665 35.408C167.785 35.456 167.949 35.504 168.157 35.552L169.321 35.744C169.697 35.8 170.017 35.908 170.281 36.068C170.545 36.22 170.745 36.42 170.881 36.668C171.025 36.908 171.097 37.2 171.097 37.544C171.097 37.96 170.989 38.324 170.773 38.636C170.557 38.948 170.241 39.188 169.825 39.356C169.409 39.524 168.905 39.608 168.313 39.608C168.025 39.608 167.753 39.596 167.497 39.572C167.249 39.556 167.021 39.528 166.813 39.488C166.613 39.448 166.429 39.404 166.261 39.356C166.093 39.3 165.953 39.24 165.841 39.176C165.801 39.152 165.773 39.132 165.757 39.116C165.741 39.092 165.733 39.052 165.733 38.996C165.733 38.828 165.733 38.632 165.733 38.408C165.733 38.176 165.733 37.952 165.733 37.736H165.949C166.133 37.832 166.309 37.912 166.477 37.976C166.653 38.032 166.833 38.08 167.017 38.12C167.209 38.152 167.409 38.176 167.617 38.192C167.833 38.208 168.061 38.216 168.301 38.216ZM175.534 32.936C175.958 32.936 176.342 33.004 176.686 33.14C177.038 33.268 177.338 33.452 177.586 33.692C177.842 33.932 178.038 34.216 178.174 34.544C178.318 34.872 178.39 35.236 178.39 35.636V36.896C178.39 37.44 178.266 37.92 178.018 38.336C177.778 38.744 177.442 39.064 177.01 39.296C176.586 39.52 176.094 39.632 175.534 39.632C175.11 39.632 174.722 39.568 174.37 39.44C174.018 39.304 173.718 39.116 173.47 38.876C173.222 38.636 173.026 38.352 172.882 38.024C172.746 37.696 172.678 37.332 172.678 36.932V35.672C172.678 35.128 172.798 34.652 173.038 34.244C173.286 33.836 173.626 33.516 174.058 33.284C174.49 33.052 174.982 32.936 175.534 32.936ZM175.57 34.244C175.258 34.244 174.994 34.308 174.778 34.436C174.57 34.556 174.41 34.728 174.298 34.952C174.186 35.168 174.13 35.428 174.13 35.732V36.848C174.13 37.08 174.162 37.292 174.226 37.484C174.298 37.668 174.398 37.824 174.526 37.952C174.638 38.072 174.778 38.164 174.946 38.228C175.114 38.292 175.298 38.324 175.498 38.324C175.81 38.324 176.07 38.264 176.278 38.144C176.494 38.016 176.658 37.84 176.77 37.616C176.882 37.392 176.938 37.132 176.938 36.836V35.72C176.938 35.464 176.906 35.244 176.842 35.06C176.778 34.876 176.686 34.72 176.566 34.592C176.446 34.48 176.302 34.396 176.134 34.34C175.974 34.276 175.786 34.244 175.57 34.244ZM181.662 33.068C181.694 33.068 181.718 33.076 181.734 33.092C181.75 33.1 181.762 33.112 181.77 33.128C181.786 33.144 181.794 33.168 181.794 33.2C181.794 33.56 181.794 33.928 181.794 34.304C181.794 34.672 181.794 35.04 181.794 35.408C181.794 35.768 181.794 36.124 181.794 36.476C181.794 36.828 181.794 37.168 181.794 37.496C181.794 37.712 181.85 37.88 181.962 38C182.082 38.112 182.238 38.168 182.43 38.168C182.614 38.168 182.79 38.148 182.958 38.108C183.134 38.068 183.298 38.008 183.45 37.928C183.602 37.84 183.754 37.732 183.906 37.604C184.058 37.468 184.206 37.308 184.35 37.124V38.456H183.954C183.794 38.696 183.622 38.908 183.438 39.092C183.254 39.268 183.046 39.404 182.814 39.5C182.59 39.588 182.33 39.632 182.034 39.632C181.786 39.632 181.554 39.588 181.338 39.5C181.13 39.42 180.954 39.3 180.81 39.14C180.666 38.98 180.55 38.792 180.462 38.576C180.382 38.36 180.342 38.116 180.342 37.844C180.342 37.484 180.342 37.124 180.342 36.764C180.342 36.404 180.342 36.044 180.342 35.684C180.342 35.324 180.342 34.968 180.342 34.616C180.342 34.36 180.342 34.104 180.342 33.848C180.342 33.584 180.342 33.324 180.342 33.068C180.566 33.068 180.786 33.068 181.002 33.068C181.226 33.068 181.446 33.068 181.662 33.068ZM185.466 33.068C185.498 33.068 185.522 33.076 185.538 33.092C185.554 33.1 185.566 33.112 185.574 33.128C185.59 33.144 185.598 33.168 185.598 33.2C185.598 33.768 185.598 34.336 185.598 34.904C185.598 35.472 185.598 36.044 185.598 36.62C185.598 37.188 185.598 37.752 185.598 38.312C185.598 38.472 185.598 38.624 185.598 38.768C185.598 38.912 185.598 39.048 185.598 39.176C185.598 39.296 185.598 39.404 185.598 39.5C185.446 39.5 185.294 39.5 185.142 39.5C184.99 39.5 184.842 39.5 184.698 39.5C184.562 39.5 184.426 39.5 184.29 39.5C184.266 39.5 184.242 39.496 184.218 39.488C184.202 39.472 184.186 39.456 184.17 39.44C184.162 39.424 184.158 39.4 184.158 39.368C184.158 38.664 184.158 37.964 184.158 37.268C184.158 36.564 184.158 35.864 184.158 35.168C184.158 34.464 184.158 33.764 184.158 33.068C184.31 33.068 184.458 33.068 184.602 33.068C184.746 33.068 184.89 33.068 185.034 33.068C185.178 33.068 185.322 33.068 185.466 33.068ZM189.097 34.208H189.553C189.673 33.912 189.805 33.672 189.949 33.488C190.093 33.304 190.257 33.168 190.441 33.08C190.633 32.992 190.853 32.948 191.101 32.948C191.229 32.948 191.337 32.96 191.425 32.984C191.513 33.008 191.577 33.032 191.617 33.056C191.649 33.08 191.669 33.104 191.677 33.128C191.693 33.144 191.701 33.172 191.701 33.212C191.701 33.324 191.701 33.436 191.701 33.548C191.701 33.66 191.701 33.768 191.701 33.872C191.701 33.976 191.701 34.084 191.701 34.196C191.701 34.3 191.701 34.408 191.701 34.52H191.485C191.405 34.496 191.317 34.476 191.221 34.46C191.125 34.444 191.013 34.436 190.885 34.436C190.637 34.436 190.413 34.484 190.213 34.58C190.013 34.676 189.825 34.816 189.649 35C189.473 35.184 189.289 35.408 189.097 35.672V34.208ZM189.325 39.5C189.165 39.5 189.005 39.5 188.845 39.5C188.693 39.5 188.537 39.5 188.377 39.5C188.225 39.5 188.073 39.5 187.921 39.5C187.897 39.5 187.877 39.5 187.861 39.5C187.845 39.492 187.829 39.484 187.813 39.476C187.805 39.46 187.797 39.444 187.789 39.428C187.789 39.412 187.789 39.392 187.789 39.368C187.789 39.112 187.789 38.828 187.789 38.516C187.789 38.196 187.789 37.86 187.789 37.508C187.789 37.148 187.789 36.784 187.789 36.416C187.789 36.048 187.789 35.68 187.789 35.312C187.789 34.944 187.789 34.592 187.789 34.256C187.789 34.016 187.789 33.796 187.789 33.596C187.789 33.388 187.789 33.212 187.789 33.068C187.965 33.068 188.129 33.068 188.281 33.068C188.441 33.068 188.597 33.068 188.749 33.068C188.901 33.068 189.049 33.068 189.193 33.068C189.225 33.068 189.249 33.076 189.265 33.092C189.281 33.1 189.293 33.112 189.301 33.128C189.317 33.144 189.325 33.168 189.325 33.2C189.325 33.512 189.325 33.864 189.325 34.256C189.325 34.648 189.325 35.06 189.325 35.492C189.325 35.924 189.325 36.368 189.325 36.824C189.325 37.28 189.325 37.736 189.325 38.192C189.325 38.648 189.325 39.084 189.325 39.5ZM196.038 32.936C196.342 32.936 196.606 32.956 196.83 32.996C197.054 33.036 197.238 33.084 197.382 33.14C197.526 33.188 197.618 33.24 197.658 33.296C197.682 33.312 197.694 33.328 197.694 33.344C197.702 33.36 197.706 33.38 197.706 33.404C197.706 33.604 197.706 33.808 197.706 34.016C197.706 34.216 197.706 34.416 197.706 34.616H197.49C197.29 34.52 197.07 34.444 196.83 34.388C196.59 34.332 196.326 34.304 196.038 34.304C195.734 34.304 195.47 34.36 195.246 34.472C195.022 34.584 194.85 34.756 194.73 34.988C194.61 35.22 194.55 35.52 194.55 35.888V36.716C194.55 36.988 194.586 37.224 194.658 37.424C194.73 37.624 194.834 37.788 194.97 37.916C195.098 38.036 195.25 38.124 195.426 38.18C195.602 38.236 195.806 38.264 196.038 38.264C196.238 38.264 196.422 38.252 196.59 38.228C196.758 38.204 196.914 38.172 197.058 38.132C197.21 38.084 197.354 38.032 197.49 37.976H197.706C197.706 38.176 197.706 38.38 197.706 38.588C197.706 38.788 197.706 38.988 197.706 39.188C197.706 39.204 197.702 39.22 197.694 39.236C197.694 39.252 197.686 39.268 197.67 39.284C197.622 39.332 197.526 39.384 197.382 39.44C197.246 39.496 197.066 39.54 196.842 39.572C196.618 39.612 196.35 39.632 196.038 39.632C195.574 39.632 195.158 39.572 194.79 39.452C194.422 39.324 194.106 39.14 193.842 38.9C193.586 38.652 193.39 38.352 193.254 38C193.126 37.64 193.062 37.236 193.062 36.788V35.852C193.062 35.26 193.186 34.748 193.434 34.316C193.69 33.876 194.042 33.536 194.49 33.296C194.938 33.056 195.454 32.936 196.038 32.936ZM202.194 32.936C202.722 32.936 203.186 33.044 203.586 33.26C203.986 33.468 204.298 33.772 204.522 34.172C204.746 34.564 204.858 35.044 204.858 35.612V36.572C204.858 36.596 204.854 36.62 204.846 36.644C204.838 36.66 204.822 36.672 204.798 36.68C204.782 36.688 204.762 36.692 204.738 36.692H201.858C201.73 36.692 201.594 36.692 201.45 36.692C201.314 36.692 201.178 36.692 201.042 36.692H200.598L200.514 35.768H203.454C203.454 35.728 203.454 35.696 203.454 35.672C203.454 35.64 203.454 35.604 203.454 35.564C203.454 35.308 203.426 35.088 203.37 34.904C203.314 34.72 203.23 34.572 203.118 34.46C203.014 34.356 202.886 34.28 202.734 34.232C202.582 34.184 202.402 34.16 202.194 34.16C201.762 34.16 201.434 34.272 201.21 34.496C200.986 34.712 200.874 35.076 200.874 35.588V36.968C200.874 37.12 200.886 37.26 200.91 37.388C200.934 37.508 200.97 37.616 201.018 37.712C201.066 37.808 201.126 37.892 201.198 37.964C201.342 38.108 201.526 38.212 201.75 38.276C201.974 38.34 202.238 38.372 202.542 38.372C202.83 38.372 203.086 38.356 203.31 38.324C203.534 38.292 203.742 38.248 203.934 38.192C204.134 38.128 204.326 38.056 204.51 37.976H204.726C204.726 38.16 204.726 38.348 204.726 38.54C204.726 38.724 204.726 38.904 204.726 39.08C204.726 39.096 204.722 39.112 204.714 39.128C204.706 39.144 204.694 39.16 204.678 39.176C204.606 39.256 204.458 39.332 204.234 39.404C204.01 39.468 203.746 39.52 203.442 39.56C203.146 39.608 202.842 39.632 202.53 39.632C202.018 39.632 201.566 39.572 201.174 39.452C200.782 39.332 200.458 39.156 200.202 38.924C199.946 38.692 199.75 38.412 199.614 38.084C199.486 37.756 199.422 37.384 199.422 36.968V35.636C199.422 35.204 199.486 34.824 199.614 34.496C199.75 34.16 199.942 33.876 200.19 33.644C200.446 33.412 200.742 33.236 201.078 33.116C201.422 32.996 201.794 32.936 202.194 32.936ZM209.209 38.216C209.729 38.216 210.089 38.152 210.289 38.024C210.489 37.896 210.589 37.74 210.589 37.556C210.589 37.452 210.561 37.36 210.505 37.28C210.457 37.192 210.369 37.12 210.241 37.064C210.121 37 209.953 36.948 209.737 36.908L208.525 36.704C208.133 36.632 207.809 36.52 207.553 36.368C207.305 36.216 207.121 36.028 207.001 35.804C206.881 35.572 206.821 35.308 206.821 35.012C206.821 34.692 206.885 34.408 207.013 34.16C207.141 33.904 207.329 33.688 207.577 33.512C207.825 33.328 208.129 33.192 208.489 33.104C208.857 33.008 209.273 32.96 209.737 32.96C210.009 32.96 210.253 32.972 210.469 32.996C210.693 33.012 210.889 33.04 211.057 33.08C211.233 33.112 211.385 33.148 211.513 33.188C211.561 33.204 211.597 33.224 211.621 33.248C211.645 33.264 211.661 33.288 211.669 33.32C211.677 33.352 211.681 33.392 211.681 33.44C211.681 33.6 211.681 33.792 211.681 34.016C211.681 34.232 211.681 34.436 211.681 34.628H211.465C211.265 34.556 211.065 34.5 210.865 34.46C210.673 34.42 210.473 34.392 210.265 34.376C210.057 34.36 209.829 34.352 209.581 34.352C209.253 34.352 208.989 34.38 208.789 34.436C208.597 34.484 208.461 34.556 208.381 34.652C208.301 34.74 208.261 34.844 208.261 34.964C208.261 35.068 208.281 35.156 208.321 35.228C208.369 35.3 208.453 35.36 208.573 35.408C208.693 35.456 208.857 35.504 209.065 35.552L210.229 35.744C210.605 35.8 210.925 35.908 211.189 36.068C211.453 36.22 211.653 36.42 211.789 36.668C211.933 36.908 212.005 37.2 212.005 37.544C212.005 37.96 211.897 38.324 211.681 38.636C211.465 38.948 211.149 39.188 210.733 39.356C210.317 39.524 209.813 39.608 209.221 39.608C208.933 39.608 208.661 39.596 208.405 39.572C208.157 39.556 207.929 39.528 207.721 39.488C207.521 39.448 207.337 39.404 207.169 39.356C207.001 39.3 206.861 39.24 206.749 39.176C206.709 39.152 206.681 39.132 206.665 39.116C206.649 39.092 206.641 39.052 206.641 38.996C206.641 38.828 206.641 38.632 206.641 38.408C206.641 38.176 206.641 37.952 206.641 37.736H206.857C207.041 37.832 207.217 37.912 207.385 37.976C207.561 38.032 207.741 38.08 207.925 38.12C208.117 38.152 208.317 38.176 208.525 38.192C208.741 38.208 208.969 38.216 209.209 38.216Z" fill="black" fill-opacity="0.3"/>
</svg>
