<svg width="248" height="25" viewBox="0 0 248 25" fill="none" xmlns="http://www.w3.org/2000/svg">
<path d="M7.49082 17.9184C6.35951 17.9184 5.34941 17.7299 4.46052 17.3528C3.57164 16.9757 2.8107 16.437 2.1777 15.7366C1.55818 15.0228 1.0868 14.1744 0.763566 13.1912C0.440334 12.1946 0.278719 11.0835 0.278719 9.85787C0.278719 8.43026 0.521142 7.14407 1.00599 5.99929C1.49084 4.84105 2.16423 3.85115 3.02619 3.02961C3.9016 2.20806 4.92517 1.5818 6.09688 1.15082C7.2686 0.706381 8.54132 0.484159 9.91505 0.484159C10.9117 0.484159 11.8275 0.591903 12.6625 0.80739C13.4975 1.02288 14.2652 1.38651 14.9655 1.8983C15.5447 2.3158 16.016 2.81412 16.3797 3.39324C16.7568 3.97236 17.0329 4.70637 17.208 5.59525C17.3965 6.47067 17.4908 7.58178 17.4908 8.92858V17.676H14.4807V9.83767C14.4807 9.1912 14.4538 8.51107 14.3999 7.79727C14.3595 7.07 14.245 6.3764 14.0565 5.71647C13.8814 5.05654 13.5985 4.50435 13.208 4.05991C12.7905 3.56159 12.2989 3.21142 11.7332 3.0094C11.181 2.80738 10.5278 2.70637 9.77364 2.70637C8.95209 2.70637 8.14401 2.84779 7.3494 3.13062C6.56826 3.41344 5.86119 3.85115 5.2282 4.44374C4.5952 5.02287 4.09015 5.77707 3.71305 6.70636C3.33595 7.62218 3.1474 8.71982 3.1474 9.99928C3.1474 10.8612 3.21474 11.6222 3.34942 12.2821C3.49756 12.942 3.69285 13.5144 3.93527 13.9993C4.19116 14.4706 4.48073 14.8545 4.80396 15.1508C5.14066 15.4336 5.50429 15.6356 5.89486 15.7568L6.52112 15.7164C6.72314 15.7568 6.9319 15.7905 7.14738 15.8174C7.37634 15.8309 7.6053 15.8376 7.83425 15.8376C8.58846 15.8376 9.10024 15.6424 9.3696 15.2518C9.65243 14.8478 9.79384 14.3966 9.79384 13.8983C9.79384 13.4673 9.67936 13.0767 9.45041 12.7265C9.22145 12.3764 8.85108 12.2013 8.3393 12.2013C7.93526 12.2013 7.58509 12.336 7.2888 12.6053C6.9925 12.8747 6.84435 13.2989 6.84435 13.8781C6.84435 14.3898 6.9319 14.868 7.10698 15.3124C7.28206 15.7434 7.49755 16.0801 7.75344 16.3225H5.2888C5.11372 16.0801 4.9117 15.7366 4.68275 15.2922C4.45379 14.8478 4.33931 14.3292 4.33931 13.7366C4.33931 13.0363 4.48746 12.4168 4.78376 11.8781C5.08005 11.3393 5.53796 10.9151 6.15749 10.6053C6.77702 10.2821 7.55816 10.1205 8.50092 10.1205C9.44367 10.1205 10.2181 10.2888 10.8241 10.6255C11.4302 10.9622 11.8814 11.4134 12.1777 11.9791C12.474 12.5447 12.6221 13.1643 12.6221 13.8377C12.6221 14.74 12.4134 15.4942 11.9959 16.1003C11.5783 16.7063 10.9858 17.1642 10.2181 17.474C9.46388 17.7703 8.55479 17.9184 7.49082 17.9184ZM25.0529 17.9184C24.0428 17.9184 23.154 17.7838 22.3863 17.5144C21.6186 17.2316 21.0193 16.8275 20.5883 16.3023C20.1573 15.7636 19.9419 15.1104 19.9419 14.3427C19.9419 13.602 20.1573 12.9622 20.5883 12.4235C21.0328 11.8713 21.7331 11.4404 22.6893 11.1306C23.659 10.8208 24.9183 10.6659 26.4671 10.6659H29.8408C31.1876 10.6659 32.3795 10.8276 33.4166 11.1508C34.4536 11.474 35.2684 12.006 35.861 12.7467C36.4671 13.474 36.7701 14.4639 36.7701 15.7164C36.7701 16.6323 36.5748 17.4067 36.1842 18.0397C35.8071 18.6861 35.2617 19.245 34.5479 19.7164C34.1034 20.0127 33.5647 20.2619 32.9317 20.4639C32.3122 20.6794 31.5782 20.8343 30.7297 20.9285C29.8947 21.0363 28.925 21.0902 27.8206 21.0902H26.2449C25.4233 21.0902 24.8375 21.1238 24.4873 21.1912C24.1506 21.272 23.8745 21.3865 23.659 21.5346C23.4435 21.6962 23.2752 21.8982 23.154 22.1407C23.0328 22.3965 22.9721 22.74 22.9721 23.171C22.9721 23.3191 22.9789 23.4605 22.9923 23.5952C23.0058 23.7299 23.0193 23.8713 23.0328 24.0194L20.0833 24.1609C20.0429 23.878 20.0092 23.5952 19.9823 23.3124C19.9688 23.043 19.9621 22.7467 19.9621 22.4235C19.9621 21.8174 20.0833 21.2854 20.3257 20.8275C20.5681 20.3831 20.8913 20.0195 21.2954 19.7366C21.5647 19.5481 21.8678 19.3932 22.2045 19.272C22.5412 19.1508 22.9587 19.0632 23.457 19.0094C23.9553 18.9555 24.5748 18.9285 25.3156 18.9285H27.1337C28.3055 18.9285 29.2684 18.8814 30.0226 18.7871C30.7768 18.7063 31.3829 18.5716 31.8408 18.3831C32.3122 18.1945 32.696 17.9454 32.9923 17.6356C33.2617 17.3663 33.4637 17.0565 33.5984 16.7063C33.7331 16.3427 33.8004 15.9319 33.8004 15.474C33.8004 14.8814 33.6724 14.4033 33.4166 14.0397C33.1741 13.676 32.8442 13.3999 32.4267 13.2114C32.0226 13.0094 31.5714 12.8747 31.0731 12.8074C30.5883 12.74 30.1034 12.7063 29.6186 12.7063H26.0832C25.6119 12.7063 25.1607 12.7333 24.7297 12.7872C24.3122 12.8276 23.9553 12.9218 23.659 13.07C23.4031 13.2047 23.2146 13.373 23.0934 13.575C22.9721 13.777 22.9115 14.0127 22.9115 14.2821C22.9115 14.7804 23.1203 15.1508 23.5378 15.3932C23.9688 15.6356 24.5412 15.7568 25.255 15.7568C25.7802 15.7568 26.2247 15.676 26.5883 15.5144C26.9654 15.3528 27.255 15.0632 27.457 14.6457C27.659 14.2148 27.76 13.6222 27.76 12.868V8.48413H24.7095V11.575L22.0025 11.8983V6.32252H34.5075V8.48413H30.6893V12.8276C30.6893 13.7703 30.595 14.5178 30.4065 15.07C30.2314 15.6087 29.9755 16.0666 29.6388 16.4437C29.1539 16.9824 28.5209 17.3663 27.7398 17.5952C26.9587 17.8107 26.063 17.9184 25.0529 17.9184ZM39.1359 17.676V6.32252H51.1965V8.48413H48.3076V17.676H45.2975V8.48413H42.146V17.676H39.1359ZM64.133 6.0801C65.3855 6.0801 66.4024 6.34946 67.1835 6.88818C67.9646 7.41343 68.537 8.1407 68.9007 9.06999C69.2778 9.99928 69.4663 11.0498 69.4663 12.2215C69.4663 13.2451 69.3451 14.1003 69.1027 14.7871C68.8737 15.474 68.5034 16.0329 67.9916 16.4639C67.6279 16.7737 67.2172 17.0161 66.7593 17.1912C66.3013 17.3663 65.7492 17.4942 65.1027 17.575C64.4697 17.6424 63.6818 17.676 62.7391 17.676H53.1431V6.32252H56.1532V15.5144H59.8704V10.5043C59.8704 9.66932 59.9579 8.98918 60.133 8.46393C60.3216 7.93868 60.5909 7.50097 60.9411 7.1508C61.3047 6.80064 61.7492 6.53801 62.2744 6.36293C62.8131 6.17438 63.4327 6.0801 64.133 6.0801ZM64.335 8.24171C64.1599 8.24171 63.9849 8.26865 63.8098 8.32252C63.6482 8.37639 63.5 8.47067 63.3653 8.60535C63.1902 8.78043 63.0623 9.02285 62.9815 9.33262C62.9142 9.62891 62.8805 10.1205 62.8805 10.8074V15.5144H63.6482C64.362 15.5144 64.9209 15.4134 65.3249 15.2114C65.7424 14.9959 66.032 14.6457 66.1936 14.1609C66.3687 13.676 66.4562 13.0296 66.4562 12.2215C66.4562 11.4808 66.3889 10.8141 66.2542 10.2215C66.1195 9.61544 65.8973 9.13733 65.5875 8.78716C65.2778 8.42353 64.8603 8.24171 64.335 8.24171ZM56.1532 18.5447C56.4226 18.5447 56.6987 18.5514 56.9815 18.5649C57.2778 18.5918 57.5472 18.6323 57.7896 18.6861L57.6482 20.6861C57.5135 20.6592 57.3519 20.639 57.1633 20.6255C56.9748 20.6255 56.7728 20.6255 56.5573 20.6255C56.2206 20.6255 55.931 20.6726 55.6886 20.7669C55.4596 20.8747 55.3452 21.0498 55.3452 21.2922C55.3452 21.5077 55.426 21.6693 55.5876 21.777C55.7627 21.8848 55.9781 21.9588 56.234 21.9992C56.5034 22.0396 56.7795 22.0599 57.0623 22.0599H57.6078C58.2004 22.0599 58.7121 21.9925 59.1431 21.8578C59.5876 21.7232 59.9647 21.5144 60.2744 21.2316C60.5977 20.9622 60.867 20.6188 61.0825 20.2013C61.1633 20.0531 61.3047 19.9117 61.5067 19.777C61.7088 19.6558 61.9916 19.5548 62.3552 19.474C62.7189 19.4067 63.17 19.373 63.7088 19.373L65.5471 19.9588C64.968 20.0801 64.5438 20.2215 64.2744 20.3831C64.0185 20.5582 63.83 20.7804 63.7088 21.0498C63.399 21.7636 62.9748 22.3494 62.436 22.8073C61.9108 23.2787 61.2711 23.6221 60.5169 23.8376C59.7626 24.0531 58.8738 24.1609 57.8502 24.1609H57.1027C56.3755 24.1609 55.6953 24.08 55.0623 23.9184C54.4428 23.7568 53.9512 23.5481 53.5876 23.2922C53.3048 23.1036 53.0489 22.841 52.8199 22.5043C52.6044 22.1676 52.4967 21.7501 52.4967 21.2518C52.4967 20.4168 52.8132 19.7568 53.4462 19.272C54.0792 18.7871 54.9815 18.5447 56.1532 18.5447ZM62.9411 21.3932L62.7593 21.1508C62.2206 21.0296 61.7357 20.8343 61.3047 20.5649C60.8872 20.309 60.5505 19.9386 60.2946 19.4538C60.0522 18.9824 59.9175 18.3831 59.8906 17.6558L62.7997 17.6356C62.7997 17.9589 62.8535 18.2349 62.9613 18.4639C63.0825 18.7063 63.2711 18.8881 63.5269 19.0094C63.7155 19.1036 63.931 19.1642 64.1734 19.1912C64.4158 19.2316 64.7458 19.2518 65.1633 19.2518H67.3047V21.3932H62.9411ZM68.7905 0.484159C69.8545 0.484159 70.7636 0.63904 71.5178 0.948803C72.2854 1.2451 72.8982 1.62894 73.3561 2.10032C73.6659 2.42355 73.9487 2.82759 74.2046 3.31243C74.4605 3.78381 74.6625 4.41007 74.8107 5.19121C74.9723 5.95889 75.0531 6.96225 75.0531 8.20131V17.676H72.043V8.98918C72.043 7.95215 72.0093 7.08347 71.942 6.38313C71.8747 5.66933 71.7535 5.07674 71.5784 4.60536C71.4033 4.12051 71.1541 3.71647 70.8309 3.39324C70.575 3.13735 70.2854 2.94206 69.9622 2.80738C69.639 2.6727 69.2686 2.60536 68.8511 2.60536C68.272 2.60536 67.8141 2.71311 67.4774 2.9286C67.1272 3.14408 66.878 3.42018 66.7299 3.75688C66.5818 4.08011 66.5077 4.42354 66.5077 4.78718C66.5077 5.16428 66.5683 5.56832 66.6895 5.99929C66.7972 6.4168 66.9656 6.84104 67.1945 7.27202H64.2047C64.0296 6.94879 63.8949 6.56495 63.8006 6.12051C63.6929 5.67606 63.639 5.24509 63.639 4.82758C63.639 4.05991 63.7871 3.40671 64.0834 2.86799C64.3797 2.3158 64.777 1.86463 65.2754 1.51446C65.7737 1.16429 66.3326 0.9084 66.9521 0.746784C67.5582 0.571701 68.171 0.484159 68.7905 0.484159ZM82.2171 17.9184C81.2878 17.9184 80.473 17.7299 79.7726 17.3528C79.0858 16.9757 78.547 16.41 78.1565 15.6558C77.7659 14.8882 77.5706 13.9387 77.5706 12.8074C77.5706 11.7164 77.7592 10.7535 78.1363 9.91847C78.5268 9.08346 79.0588 8.38312 79.7322 7.81747C80.4191 7.23835 81.2002 6.80737 82.0757 6.52454C82.9645 6.22825 83.9006 6.0801 84.8837 6.0801C85.8534 6.0801 86.6952 6.18785 87.409 6.40333C88.1362 6.60535 88.7692 6.94205 89.308 7.41343C89.6581 7.70973 89.9544 8.07336 90.1968 8.50434C90.4393 8.92184 90.6346 9.47403 90.7827 10.1609C90.9308 10.8478 91.0319 11.7366 91.0857 12.8276C91.1127 13.1912 91.1463 13.5414 91.1867 13.8781C91.2406 14.2148 91.3214 14.5178 91.4292 14.7871C91.5504 15.043 91.7187 15.2518 91.9342 15.4134C92.0824 15.5211 92.2507 15.6087 92.4393 15.676C92.6278 15.7299 92.8433 15.7568 93.0857 15.7568C93.5032 15.7568 93.8669 15.6626 94.1766 15.474C94.4864 15.2855 94.7288 14.9622 94.9039 14.5043C95.079 14.0464 95.1665 13.4134 95.1665 12.6053C95.1665 11.9723 95.079 11.3259 94.9039 10.6659C94.7288 9.99255 94.4729 9.32588 94.1362 8.66595C93.813 8.00602 93.4224 7.39323 92.9645 6.82757L95.4494 5.35283C96.3652 6.4572 97.0453 7.60198 97.4897 8.78716C97.9477 9.95888 98.1766 11.1912 98.1766 12.4841C98.1766 13.5616 97.9948 14.5111 97.6312 15.3326C97.2675 16.1407 96.6951 16.7737 95.914 17.2316C95.1463 17.6895 94.143 17.9184 92.9039 17.9184C92.2844 17.9184 91.7053 17.8444 91.1665 17.6962C90.6278 17.5481 90.1497 17.3057 89.7322 16.969C89.2608 16.5919 88.877 16.0801 88.5807 15.4336C88.2979 14.7871 88.1228 13.9723 88.0554 12.9892C88.0285 12.4774 87.9881 12.006 87.9342 11.575C87.8804 11.1306 87.7995 10.7266 87.6918 10.3629C87.5841 9.99928 87.4292 9.68278 87.2272 9.41342C86.9713 9.04979 86.6346 8.7737 86.2171 8.58514C85.7995 8.38312 85.2676 8.28211 84.6211 8.28211C83.7187 8.28211 82.9376 8.48413 82.2777 8.88817C81.6177 9.29221 81.1127 9.85787 80.7625 10.5851C80.4124 11.2989 80.2373 12.1205 80.2373 13.0498C80.2373 13.7232 80.3113 14.2686 80.4595 14.6861C80.6076 15.0902 80.8164 15.3865 81.0858 15.575C81.3686 15.7501 81.7053 15.8376 82.0959 15.8376C82.4056 15.8376 82.6615 15.777 82.8635 15.6558C83.079 15.5346 83.2406 15.3595 83.3484 15.1306C83.4696 14.9016 83.5302 14.6255 83.5302 14.3023C83.5302 13.804 83.3888 13.4134 83.106 13.1306C82.8366 12.8478 82.4595 12.7063 81.9746 12.7063C81.4225 12.7063 80.9174 12.8747 80.4595 13.2114C80.0151 13.5346 79.611 13.8915 79.2474 14.2821L78.8029 12.3427C79.3013 11.8713 79.8669 11.474 80.4999 11.1508C81.1329 10.8276 81.8736 10.6659 82.7221 10.6659C83.7996 10.6659 84.675 10.969 85.3484 11.575C86.0218 12.1811 86.3585 13.043 86.3585 14.1609C86.3585 14.942 86.1969 15.6154 85.8736 16.1811C85.5639 16.7333 85.0992 17.1642 84.4797 17.474C83.8736 17.7703 83.1194 17.9184 82.2171 17.9184ZM87.9746 4.30233C87.4898 4.30233 87.0925 4.14745 86.7827 3.83768C86.4729 3.51445 86.3181 3.11041 86.3181 2.62557C86.3181 2.14072 86.4729 1.74341 86.7827 1.43365C87.0925 1.11042 87.4898 0.948803 87.9746 0.948803C88.446 0.948803 88.8366 1.11042 89.1463 1.43365C89.4561 1.74341 89.611 2.14072 89.611 2.62557C89.611 3.11041 89.4561 3.51445 89.1463 3.83768C88.8366 4.14745 88.446 4.30233 87.9746 4.30233ZM112.1 10.3629C112.948 10.3629 113.689 10.538 114.322 10.8882C114.968 11.2249 115.473 11.7569 115.837 12.4841C116.201 13.2114 116.382 14.1474 116.382 15.2922C116.382 16.1137 116.288 16.8747 116.1 17.575C115.924 18.2754 115.662 18.9218 115.312 19.5144L115.211 20.1003C114.645 20.9218 113.918 21.6356 113.029 22.2417C112.14 22.8477 111.116 23.3191 109.958 23.6558C108.8 23.9925 107.52 24.1609 106.12 24.1609H105.918C104.692 24.1609 103.621 24.0396 102.706 23.7972C101.803 23.5548 101.103 23.1844 100.605 22.6861C100.12 22.2013 99.8774 21.5885 99.8774 20.8477C99.8774 20.511 99.938 20.2147 100.059 19.9588C100.194 19.7164 100.382 19.5144 100.625 19.3528C100.854 19.2046 101.123 19.0969 101.433 19.0296C101.756 18.9622 102.302 18.9285 103.069 18.9285H118.988V6.32252H121.999V21.0902H113.19L111.877 20.8881H103.291C103.063 20.8881 102.887 20.9083 102.766 20.9487C102.659 20.9891 102.605 21.0834 102.605 21.2316C102.605 21.4067 102.719 21.5615 102.948 21.6962C103.19 21.8444 103.541 21.9588 103.999 22.0396C104.456 22.1205 105.002 22.1609 105.635 22.1609H105.938C107.446 22.1609 108.685 21.9925 109.655 21.6558C110.625 21.3326 111.433 20.8612 112.079 20.2417L112.382 19.5144C112.719 18.9892 112.982 18.3831 113.17 17.6962C113.359 17.0228 113.453 16.3023 113.453 15.5346C113.453 14.4033 113.271 13.6222 112.908 13.1912C112.544 12.7467 112.046 12.5245 111.413 12.5245C110.914 12.5245 110.483 12.6323 110.12 12.8478C109.77 13.0498 109.399 13.3259 109.009 13.676L108.908 11.474C109.339 11.1643 109.803 10.9016 110.302 10.6861C110.8 10.4707 111.399 10.3629 112.1 10.3629ZM100.827 17.676V6.32252H112.766V8.48413H109.857V17.676H106.847V8.48413H103.837V17.676H100.827ZM125.211 17.676V6.32252H128.221V15.5144H138.282V17.676H125.211ZM131.716 4.30233C131.231 4.30233 130.834 4.14745 130.524 3.83768C130.215 3.51445 130.06 3.11041 130.06 2.62557C130.06 2.14072 130.215 1.74341 130.524 1.43365C130.834 1.11042 131.231 0.948803 131.716 0.948803C132.188 0.948803 132.578 1.11042 132.888 1.43365C133.198 1.74341 133.353 2.14072 133.353 2.62557C133.353 3.11041 133.198 3.51445 132.888 3.83768C132.578 4.14745 132.188 4.30233 131.716 4.30233ZM140.225 17.676V6.32252H143.235V15.5144H150.79V6.32252H153.8V17.676H140.225ZM167.204 20.5245C165.79 20.5245 164.592 20.3494 163.608 19.9993C162.625 19.6491 161.878 19.1642 161.366 18.5447C160.854 17.9252 160.598 17.2114 160.598 16.4033C160.598 16.0127 160.672 15.6424 160.821 15.2922C160.982 14.942 161.245 14.639 161.608 14.3831C161.797 14.2484 162.026 14.1407 162.295 14.0599C162.565 13.9656 162.888 13.8983 163.265 13.8579C163.656 13.8175 164.127 13.7972 164.679 13.7972H180.295L180.275 15.9387H164.901C164.686 15.9387 164.497 15.9454 164.336 15.9589C164.187 15.9723 164.066 15.9993 163.972 16.0397C163.878 16.0666 163.797 16.107 163.73 16.1609C163.581 16.309 163.507 16.4841 163.507 16.6861C163.507 17.1844 163.831 17.5885 164.477 17.8982C165.124 18.208 166.147 18.3629 167.548 18.3629H167.79C169.15 18.3629 170.302 18.208 171.245 17.8982C172.187 17.5885 172.948 17.1642 173.528 16.6255C174.12 16.0868 174.558 15.4875 174.841 14.8275L174.901 14.2619C174.969 14.006 175.009 13.7501 175.022 13.4942C175.049 13.2249 175.063 12.9757 175.063 12.7467C175.063 11.9925 174.955 11.2989 174.74 10.6659C174.524 10.0195 174.174 9.48076 173.689 9.04979C173.218 8.60535 172.592 8.31578 171.81 8.1811C171.662 8.15417 171.501 8.1407 171.326 8.1407C171.164 8.12723 171.009 8.1205 170.861 8.1205C170.484 8.1205 170.134 8.16764 169.81 8.26191C169.487 8.34272 169.225 8.49087 169.022 8.70636C168.82 8.92184 168.719 9.23161 168.719 9.63565C168.719 10.0532 168.834 10.3831 169.063 10.6255C169.292 10.868 169.615 10.9892 170.033 10.9892C170.383 10.9892 170.686 10.8814 170.942 10.6659C171.198 10.437 171.326 10.0262 171.326 9.43363C171.326 8.92184 171.204 8.4572 170.962 8.03969C170.733 7.60872 170.47 7.21141 170.174 6.84778L172.295 6.52454C172.524 6.72656 172.74 6.97572 172.942 7.27202C173.157 7.56831 173.332 7.91848 173.467 8.32252C173.615 8.71309 173.689 9.17773 173.689 9.71645C173.689 10.1878 173.615 10.6255 173.467 11.0296C173.332 11.4336 173.11 11.7905 172.8 12.1003C172.504 12.41 172.113 12.6525 171.629 12.8276C171.144 12.9892 170.551 13.07 169.851 13.07C169.164 13.07 168.524 12.9488 167.932 12.7063C167.352 12.4639 166.881 12.1003 166.517 11.6154C166.167 11.1171 165.992 10.4976 165.992 9.75686C165.992 8.89491 166.208 8.19457 166.639 7.65585C167.083 7.11714 167.676 6.71983 168.416 6.46394C169.157 6.20805 169.992 6.0801 170.921 6.0801C172.12 6.0801 173.157 6.26192 174.033 6.62555C174.908 6.98919 175.635 7.4875 176.214 8.1205C176.807 8.74003 177.245 9.44709 177.528 10.2417C177.81 11.0228 177.952 11.8377 177.952 12.6861C177.952 12.9824 177.932 13.272 177.891 13.5548C177.864 13.8242 177.824 14.0935 177.77 14.3629V15.0902C177.366 16.2215 176.693 17.1912 175.75 17.9993C174.807 18.8073 173.642 19.4269 172.255 19.8578C170.868 20.3023 169.305 20.5245 167.568 20.5245H167.204ZM180.113 20.7871V6.32252H183.123V20.7871H180.113ZM190.31 17.9184C189.381 17.9184 188.566 17.7299 187.865 17.3528C187.165 16.9757 186.62 16.41 186.229 15.6558C185.838 14.9016 185.643 13.9589 185.643 12.8276C185.643 11.4808 185.98 10.3023 186.653 9.29221C187.327 8.28211 188.29 7.49424 189.542 6.92858C190.808 6.36293 192.31 6.0801 194.047 6.0801C194.882 6.0801 195.636 6.13397 196.31 6.24172C196.997 6.33599 197.643 6.50434 198.249 6.74677C198.855 6.98919 199.475 7.31242 200.108 7.71646L200.613 8.03969C201.542 8.75349 202.303 9.59524 202.896 10.5649C203.488 11.5212 203.785 12.6323 203.785 13.8983C203.785 14.7198 203.623 15.4336 203.3 16.0397C202.99 16.6457 202.539 17.1104 201.946 17.4336C201.354 17.7568 200.633 17.9184 199.785 17.9184C198.815 17.9184 198.027 17.7366 197.421 17.373C196.828 17.0094 196.391 16.5245 196.108 15.9185C195.825 15.2989 195.684 14.6255 195.684 13.8983C195.684 13.1306 195.798 12.4033 196.027 11.7164C196.256 11.0296 196.572 10.3831 196.976 9.77706C197.381 9.171 197.845 8.61208 198.37 8.1003L198.774 7.85787C199.488 7.25181 200.256 6.80737 201.077 6.52454C201.912 6.22825 202.741 6.0801 203.562 6.0801C205.03 6.0801 206.209 6.34946 207.098 6.88818C208 7.4269 208.653 8.14743 209.057 9.04979C209.475 9.93868 209.684 10.9151 209.684 11.9791C209.684 12.8006 209.589 13.5818 209.401 14.3225C209.226 15.0498 209.003 15.7232 208.734 16.3427C208.465 16.9488 208.182 17.474 207.886 17.9184L205.401 16.7063C205.751 16.1541 206.047 15.5144 206.29 14.7871C206.545 14.0464 206.673 13.171 206.673 12.1609C206.673 11.3393 206.532 10.639 206.249 10.0599C205.98 9.48076 205.589 9.04306 205.077 8.74676C204.579 8.437 203.973 8.28211 203.259 8.28211C202.734 8.28211 202.249 8.35619 201.805 8.50434C201.36 8.63902 200.929 8.88817 200.512 9.25181C200.094 9.53464 199.731 9.89154 199.421 10.3225C199.125 10.7535 198.896 11.2585 198.734 11.8377C198.572 12.4033 198.492 13.043 198.492 13.7568C198.492 14.4976 198.606 15.0363 198.835 15.373C199.064 15.6962 199.354 15.8578 199.704 15.8578C200.027 15.8578 200.276 15.7568 200.451 15.5548C200.64 15.3528 200.768 15.0902 200.835 14.7669C200.902 14.4302 200.936 14.0733 200.936 13.6962C200.936 12.8612 200.727 12.0599 200.31 11.2922C199.906 10.5245 199.313 9.91847 198.532 9.47403C197.899 9.04306 197.212 8.74003 196.471 8.56494C195.731 8.37639 194.936 8.28211 194.088 8.28211C192.943 8.28211 191.966 8.4572 191.158 8.80737C190.35 9.14406 189.717 9.59524 189.259 10.1609C188.801 10.7266 188.512 11.3461 188.391 12.0195C188.377 12.1676 188.357 12.3158 188.33 12.4639C188.317 12.6121 188.31 12.8208 188.31 13.0902C188.31 13.7501 188.377 14.2821 188.512 14.6861C188.66 15.0902 188.876 15.3865 189.158 15.575C189.441 15.7501 189.778 15.8376 190.168 15.8376C190.478 15.8376 190.734 15.777 190.936 15.6558C191.152 15.5346 191.313 15.3595 191.421 15.1306C191.542 14.9016 191.603 14.6255 191.603 14.3023C191.603 13.804 191.461 13.4134 191.179 13.1306C190.909 12.8478 190.532 12.7063 190.047 12.7063C189.482 12.7063 188.983 12.8747 188.552 13.2114C188.121 13.5346 187.711 13.8915 187.32 14.2821L186.876 12.3427C187.374 11.8713 187.939 11.474 188.572 11.1508C189.205 10.8276 189.946 10.6659 190.795 10.6659C191.886 10.6659 192.761 10.969 193.421 11.575C194.094 12.1811 194.431 13.043 194.431 14.1609C194.431 14.942 194.276 15.6154 193.966 16.1811C193.657 16.7333 193.199 17.1642 192.593 17.474C191.987 17.7703 191.226 17.9184 190.31 17.9184ZM212.332 17.676V6.32252H215.342V15.5144H225.403V17.676H212.332ZM231.305 17.9184C230.376 17.9184 229.561 17.7299 228.861 17.3528C228.174 16.9757 227.635 16.41 227.245 15.6558C226.854 14.8882 226.659 13.9387 226.659 12.8074C226.659 11.3528 226.975 10.1272 227.608 9.1306C228.241 8.13397 229.103 7.37976 230.194 6.86798C231.285 6.34273 232.511 6.0801 233.871 6.0801C235.11 6.0801 236.16 6.24172 237.022 6.56495C237.884 6.87471 238.585 7.30569 239.123 7.85787C239.662 8.39659 240.053 9.02285 240.295 9.73666C240.537 10.437 240.659 11.171 240.659 11.9387C240.659 12.5986 240.591 13.2316 240.457 13.8377C240.322 14.4302 240.147 14.9892 239.931 15.5144H244.194V6.32252H247.204V17.676H236.84L236.739 16.0397C236.995 15.5818 237.211 15.0363 237.386 14.4033C237.561 13.7703 237.649 13.0632 237.649 12.2821C237.649 11.4336 237.494 10.7131 237.184 10.1205C236.888 9.5279 236.443 9.07673 235.851 8.76696C235.258 8.44373 234.524 8.28211 233.649 8.28211C232.733 8.28211 231.952 8.4976 231.305 8.92858C230.659 9.35955 230.167 9.93868 229.83 10.6659C229.494 11.3797 229.325 12.1744 229.325 13.0498C229.325 13.7232 229.399 14.2686 229.548 14.6861C229.696 15.0902 229.904 15.3865 230.174 15.575C230.457 15.7501 230.793 15.8376 231.184 15.8376C231.494 15.8376 231.75 15.777 231.952 15.6558C232.167 15.5346 232.329 15.3595 232.436 15.1306C232.558 14.9016 232.618 14.6255 232.618 14.3023C232.618 13.7905 232.477 13.3999 232.194 13.1306C231.925 12.8478 231.548 12.7063 231.063 12.7063C230.497 12.7063 229.992 12.8747 229.548 13.2114C229.103 13.5346 228.699 13.8915 228.335 14.2821L227.891 12.3427C228.389 11.8713 228.955 11.474 229.588 11.1508C230.221 10.8276 230.962 10.6659 231.81 10.6659C232.888 10.6659 233.763 10.969 234.436 11.575C235.11 12.1811 235.447 13.043 235.447 14.1609C235.447 14.942 235.285 15.6154 234.962 16.1811C234.652 16.7333 234.187 17.1642 233.568 17.474C232.962 17.7703 232.207 17.9184 231.305 17.9184ZM244.194 23.3932V17.3528H247.204V23.3932H244.194Z" fill="#03B051"/>
</svg>
